<svg xmlns="http://www.w3.org/2000/svg" viewBox="0 0 342.56 39.35"><path d="M291.08,19.4c0-4.83.1-9.66,0-14.48-.08-2.73.76-3.92,3.69-3.8,4.82.21,9.66.16,14.48,0,2.62-.08,3.54.88,3.5,3.47s-1.39,3-3.52,2.9-4,.18-6-.08c-4.22-.57-5.41,1.12-5.27,5.26.1,3.26,1.24,4.06,4.12,3.79,1.65-.15,3.33,0,5,0s2.8.59,2.76,2.6-.32,3.36-2.57,3.46c-1.16.06-2.33,0-3.49,0-5.72,0-6.15.61-5.73,6.26.19,2.52,1.3,3,3.5,2.93,3-.15,6,0,9-.06,1.9,0,3.2.41,3.26,2.71s-.75,3.41-3.14,3.39q-8.25-.09-16.48,0c-2.41,0-3.16-1.11-3.11-3.39C291.15,29.39,291.08,24.39,291.08,19.4Z" style="stroke:#000;stroke-miterlimit:10;stroke-width:1.4173228740692139px"/><path d="M168.63,38.64a18.34,18.34,0,0,1-8.88-2.81c-1.53-.89-4.29-1.43-2.55-4.24,1.3-2.09,2.53-4.4,5.72-1.76A8.56,8.56,0,0,0,170,31.64a4.17,4.17,0,0,0,3.62-3,3.45,3.45,0,0,0-2-4.11q-4.16-2.22-8.41-4.27c-4.17-2-6.38-5.14-6-9.9.4-4.54,3.26-7.28,7.17-8.73C168.93-.09,173.51.73,177.81,3c2.43,1.27,1.93,3,.87,5s-2.2,2.33-4,1.1a6.3,6.3,0,0,0-2.17-1.17c-2.92-.54-6.29-1.55-7.85,2.05-1.71,3.94,2.1,4.54,4.36,5.86,1.56.91,3.34,1.45,4.95,2.28,5.8,3,7.88,7,6.56,12.43C179.45,35.07,174.16,38.65,168.63,38.64Z" style="stroke:#000;stroke-miterlimit:10;stroke-width:1.4173228740692139px"/><path d="M330.49.88c2.6-.29,5.25.66,7.81,2,2.12,1.07,2.93,2.47,1.45,4.79-1.29,2-2.44,3-4.72,1.17a8,8,0,0,0-3.72-1.22c-2.68-.41-5.29.14-6.14,3-.78,2.6,1.52,3.68,3.46,4.7s4,2.19,6.06,3.23c5.88,3,8.1,6.77,6.8,11.63s-6.55,8.63-12.15,8.52A19,19,0,0,1,320,35.56c-1.46-.88-3.67-1.76-1.94-4.15,1.33-1.82,2.56-4.26,5.42-1.64a8.72,8.72,0,0,0,3.14,1.46c3.15,1,6.45.84,7.73-2.42s-2-4.39-4.35-5.57c-1.62-.82-3.33-1.48-5-2.3-5.78-2.92-8.24-7-7-11.72C319.35,4.05,323.91.91,330.49.88Z" style="stroke:#000;stroke-miterlimit:10;stroke-width:1.4173228740692139px"/><path d="M.77,19.43C.77,14.62.88,9.8.73,5c-.08-2.7.7-4,3.63-3.86,4.81.16,9.63.08,14.45,0,2.22,0,3.38.68,3.37,3.13s-.89,3.35-3.24,3.23c-1.82-.1-3.65,0-5.48,0-5.33,0-7.45,3.14-5.63,8.15.62,1.68,1.88,1.62,3.21,1.63,1.66,0,3.32.07,5,0,2.27-.14,3.91.24,3.93,3.08,0,3.1-2,2.88-4.09,2.81h-1c-8.57,0-7-.36-7.08,7.22a37.7,37.7,0,0,0,0,4c.24,2.64-1,3.55-3.49,3.51S.54,37.1.72,34.37c.17-2.48.05-5,.05-7.47Z" style="stroke:#000;stroke-miterlimit:10;stroke-width:1.4173228740692139px"/><path d="M201.15,23c0,3.83-.1,7.66,0,11.48.11,2.74-1.26,3.39-3.65,3.43S193.93,37,194,34.4c.11-7.48-.14-15,.14-22.45.13-3.56-1.06-4.84-4.51-4.45-1.64.18-3.32.06-5,.09-2.66,0-2.13-2-2.26-3.54s.22-3,2.33-3q12.72,0,25.44.05c2.24,0,2.67,1.39,2.7,3.31,0,2.07-.77,3-2.86,3.16-2.87.29-6.75-1.67-8.34,1.11-1.31,2.28-.43,5.82-.48,8.8C201.12,19.33,201.14,21.16,201.15,23Z" style="stroke:#000;stroke-miterlimit:10;stroke-width:1.4173228740692139px"/><path d="M43.58.88A18.31,18.31,0,0,0,25,19.55c.08,10.39,8.81,19.16,19,19.07s18.56-8.88,18.48-19.53C62.42,8.64,54.3.82,43.58.88ZM44,31.71c-6.52.08-11.41-5.17-11.5-12.34C32.38,12.64,37.3,7.45,43.8,7.44A11.91,11.91,0,0,1,55.53,19.67C55.39,26.16,50.12,31.64,44,31.71Z" style="stroke:#000;stroke-miterlimit:10;stroke-width:1.4173228740692139px"/><path d="M85.06.89C74.25.83,66.31,8.59,66.28,19.26S74.6,38.69,84.92,38.61s18.78-8.95,18.71-19.5A18.25,18.25,0,0,0,85.06.89Zm-.44,30.83c-6.25-.11-11.54-6-11.39-12.67A11.54,11.54,0,0,1,85,7.44c6.56.07,11.17,5,11.12,12C96.05,26.65,91.18,31.85,84.62,31.72Z" style="stroke:#000;stroke-miterlimit:10;stroke-width:1.4173228740692139px"/><path d="M232.85.88c-10.57.08-18.36,7.78-18.44,18.23-.09,10.69,8.32,19.51,18.59,19.5,10.43,0,18.68-8.56,18.67-19.35C251.66,8.69,243.58.8,232.85.88Zm.35,30.92c-6.33.05-11.66-5.58-11.72-12.38a11.61,11.61,0,1,1,23.21-.29C244.79,25.71,239.31,31.75,233.2,31.8Z" style="stroke:#000;stroke-miterlimit:10;stroke-width:1.4173228740692139px"/><path d="M128.27,2.33C123,.87,117.7,1.4,112.4,1.15c-2.81-.14-2.81,1.59-2.81,3.54,0,5,0,10,0,15,0,4.83.06,9.66,0,14.49,0,2.1.25,3.64,2.86,3.58,5-.11,10,.35,14.94-.64,7.86-1.56,12.87-8,13.1-16.59C140.72,10.82,136.42,4.58,128.27,2.33Zm4.92,19.26c-1.3,7.23-7.69,11.64-14.62,10.22-1.77-.36-2-1.39-2-2.83,0-3.16,0-6.32,0-9.48,0-2.16,0-4.32,0-6.48,0-5.93.24-6.14,6.19-5.49C130,8.33,134.5,14.33,133.19,21.59Z" style="stroke:#000;stroke-miterlimit:10;stroke-width:1.4173228740692139px"/><path d="M282.83,32.77a36.79,36.79,0,0,0-3.1-5.67c-1.6-2.65-2.25-4.42.5-7.53,6.33-7.15,1-17.45-6.52-17.95-4.33-.28-8.64-.23-12.95-.44-2.44-.12-3.13,1.17-3.09,3.41.1,5,0,10,0,15,0,4.83.1,9.66-.05,14.49-.07,2.5.69,3.71,3.34,3.71s4.07-.91,3.74-3.83a29.69,29.69,0,0,1,0-5c.11-1.84-.83-4.22,2.24-4.71,2.5-.4,4.11.59,5.21,2.83a98.57,98.57,0,0,0,4.63,8.82c1.77,2.85,5,2.55,7.12,1.34C286.34,35.86,283.4,34.23,282.83,32.77ZM268.76,18.38c-4.86.27-4.39-2.61-4.14-5.59-.21-3-.62-5.91,3.92-5.5,3.65.32,7.34.71,7.29,5.42C275.78,17.06,272.8,18.16,268.76,18.38Z" style="stroke:#000;stroke-miterlimit:10;stroke-width:1.4173228740692139px"/></svg>