<svg xmlns="http://www.w3.org/2000/svg" viewBox="0 0 821.31 145.1"><path d="M63.41,26.06c-7.54-1.68-14.31-3.22-21.32-2.23-6.5.91-12.78,2.39-18.08,6.49-6.65,5.13-9.31,12.15-8.19,20.28C17.32,61.39,27.51,65.93,38.44,61c5.46-2.44,5.67-2.26,5.88,3.53A38.82,38.82,0,0,1,43,76.91c-1.12,3.83.57,4.28,3.63,4.09a96.57,96.57,0,0,1,32.6,3.1c8.34,2.34,15.65,6.46,21.18,13.32A15.69,15.69,0,0,1,102,99.91a5.83,5.83,0,0,1,.16,1.83c-5.6-1.22-9.63-5.12-14.56-7.15-15-6.19-30.32-6.78-46-3.8-7.15,1.35-7.16,1.17-6-6,.64-3.94,1.12-7.91,1.8-11.83.49-2.83-.36-3.26-2.9-2.19-8.76,3.7-17,2.61-24.25-3.55C2.51,60.66-1,51.94,1.54,42.23c3-11.5,10.86-20.3,22.34-23.31,9.64-2.52,17.8-7.46,26.61-11.41C71.8-2,92.74-1.31,112.78,11.42a27.54,27.54,0,0,1,6.7,6c4.9,6.07,5,13.36-.27,19.05-1.75,1.9-2.15,2.61.53,3.71,14.7,6,12.6,31.32.76,38.27-6.32,3.72-12.12,1.8-17.71-2-1.3-.88-3.33-3.71-3.63.89-.13,1.83-1.48.75-2,.16a6.88,6.88,0,0,1-1.71-7C96.54,67,95,65.8,91.83,65c-6.8-1.62-13.54-3.39-20.56-3.89a169,169,0,0,0-20.52-.09c11.07-5.68,34.49-6.27,45.05-1.4,3.51,1.62,6.15,3.4,4.25,7.85-1.32,3.08.2,4.42,3.06,5.39,7.26,2.47,13.59-1,15-8.5A17.07,17.07,0,0,0,100.6,43.9a9.2,9.2,0,0,1-6-1.36c2.42-1.95,4.72-3.54,6.71-5.45C106,32.63,106,28.17,101,23.84a40.11,40.11,0,0,0-24.4-9.78A72.17,72.17,0,0,0,50.07,17C55.33,19.48,60.1,21,63.41,26.06Z" style="stroke:#000;stroke-miterlimit:10;stroke-width:1.4173228740692139px"/><path d="M557.44,45.24c-1.09,7.83-2.2,15.66-3.26,23.49-.71,5.27-1.46,10.54-2,15.84-.3,3-1.32,3.73-3.56,1.53s-4.65-4.75-6.86-7.23a5.69,5.69,0,0,1-1.18-5.08C544.07,52,547.39,30.1,550.77,8.25a17.23,17.23,0,0,1,.93-3.84c.67-1.64,1.17-3.47,3.6-3.56,2.18-.09,2.89,1.45,3.62,2.87,4.16,8.13,8.31,16.27,12.34,24.47,6.53,13.27,13,26.59,19.45,39.88.56,1.14.81,2.54,2.56,3.44q8-16.53,16-33,7.6-15.71,15.25-31.39A22.73,22.73,0,0,1,626.1,4c1-1.44,1.65-3.4,4-3.15,2.59.27,3.14,2.4,3.48,4.26,1.22,6.71,2.25,13.45,3.25,20.19,3,20.39,6,40.79,9,61.18,1,6.58,3.49,8.7,10.73,9.38,1.92.19,4.54-.31,4.59,2.52s-2.55,3.24-4.73,3.21c-9-.11-18-.16-26.93-.69-2.78-.17-6.06-1.5-3-5.51a4.62,4.62,0,0,0,.83-3.74c-2.23-15.78-4.39-31.58-6.58-47.4-2.37-.06-2.47,2-3.15,3.34-7.77,15.81-15.49,31.64-23.29,47.43-1.22,2.47-2,6-5.23,6.11-3.52.12-4.36-3.6-5.72-6.15C574.73,78.62,566.56,61.94,557.44,45.24Z" style="stroke:#000;stroke-miterlimit:10;stroke-width:1.4173228740692139px"/><path d="M219.58,50.85c5.32,0,10.64,0,16,0,2,0,4.34,0,4.37,2.82,0,2.4-2,2.79-3.9,2.86-4.52.18-6,3-6,7,0,9.16-.16,18.32,0,27.48.08,3.88-1.2,6.37-5,7.52-25.55,7.79-50.2,7.61-72.61-9-8.8-6.54-13.36-16-15.2-26.65-4.23-24.39,6-48.12,30.16-57.7,13.79-5.47,28-4.86,42.27-3.37,5.28.55,10.47,1.93,15.74,2.53,3.24.37,4.38,1.93,4.24,4.89-.34,6.63-.71,13.26-1,19.89-.09,1.86-.59,3.26-2.78,3.39A2.68,2.68,0,0,1,222.71,30c-1.59-11.36-10-15.3-19.55-17.76a44.6,44.6,0,0,0-22.74-.11c-12,3.22-19.2,11.26-21.85,23.47-4.51,20.83,2.56,41.06,18.17,51.26,9.08,5.93,19.18,7.1,29.71,5.9,3-.34,4.21-2.12,4.17-5.13-.1-7.66,0-15.32-.05-23,0-6.13-1.35-7.6-7.48-8.19-2.13-.21-4.82.29-4.54-3,.26-3.15,3-2.54,5.06-2.57,5.32-.08,10.64,0,16,0Z" style="stroke:#000;stroke-miterlimit:10;stroke-width:1.4173228740692139px"/><path d="M359.93,40.85c0-8.32-.09-16.65,0-25,.07-4.73-1.82-7.28-6.76-7.12a10.35,10.35,0,0,1-2.48-.2c-1.48-.33-3.08-.73-3.12-2.65s1.31-2.91,3.18-3.12a16.57,16.57,0,0,1,2-.09c10.82.13,21.64.59,32.46,0,2.25-.12,4.7-.06,4.85,2.91.14,2.76-2.34,3.05-4.27,3.07-4.13,0-5.56,2.23-5.61,6-.27,19.46-1.52,39,.84,58.36,1.34,11,9.15,21.06,24.6,19.83,10.93-.88,19.08-8.69,20.08-21,1.55-19.1,1.19-38.24.39-57.37-.16-3.68-2-5.45-5.56-5.68a17.14,17.14,0,0,1-3.46-.28c-1.43-.4-3.07-1-2.9-2.9.16-1.68,1.56-2.46,3.1-2.8a8.78,8.78,0,0,1,2-.09h27.46c2.24,0,4.72,0,4.9,2.94s-2.58,3-4.33,3c-4.63.06-6,2.36-6,6.62,0,14.83-.17,29.65-.27,44.47a66.13,66.13,0,0,1-2.09,16.31c-3.64,14-12.74,22.84-26.83,25.9-12,2.59-23.93,2.28-34.88-4-12.68-7.29-16.28-19.58-16.89-33.08-.36-8-.06-16-.06-24Z" style="stroke:#000;stroke-miterlimit:10;stroke-width:1.4173228740692139px"/><path d="M697.68,101.79c-10-1.26-18.3-.44-26.62-.34-2.37,0-5.18.29-5.6-2.76-.46-3.34,2.78-3,4.61-3,5.48-.24,5.23-4.26,5.48-7.84.92-13.3.42-26.63.47-39.95,0-10.66-.14-21.33-.16-32,0-4.95-2.23-7.35-7.31-7.15-2.11.08-4.94,0-5-2.79-.07-3.12,2.7-3.26,5.15-3.24,14.49.11,29,.25,43.47.31,3.64,0,7.28.08,10.85-1.17,3-1,4.52.5,4.27,3.53-.43,5.3-1,10.59-1.57,15.88-.18,1.71-1.13,2.88-2.87,2.85a2.71,2.71,0,0,1-2.9-2.82c0-6.3-4-7.7-9.24-7.85-4.79-.14-10.76-2.26-14,.54s-.75,8.77-1,13.35c-.21,4.32-.05,8.66-.05,13,0,1.68-.13,3.69,2.29,3.59,6.14-.25,12.33.72,18.43-.63a10.12,10.12,0,0,0,2.81-1c1.64-1,3-3.14,5.2-1.37,1.93,1.54.87,3.73.74,5.64-.3,4.64-.76,9.27-1.11,13.91-.16,2-.7,3.87-2.89,4.08-2.43.25-2.9-1.77-3.07-3.68-.42-4.6-2.75-6.81-7.52-6.68-3.81.11-7.64-.14-11.46-.4-2.71-.19-3.47,1.1-3.45,3.56.06,8.83,0,17.66,0,26.49,0,4.38,2.1,7,6.53,7.2,4,.22,8,.33,12,.21,5.42-.16,9.17-2.5,10.14-8.33.31-1.85.65-4.27,3.54-3.91,3.06.39,2.77,2.81,2.75,5,0,.33-.11.66-.14,1-2.07,20-1.48,16.55-17.93,16.81C707,101.86,701.51,101.79,697.68,101.79Z" style="stroke:#000;stroke-miterlimit:10;stroke-width:1.4173228740692139px"/><path d="M786.44,53.67c.42,10.13-.49,22.44.41,34.75.37,5,2.37,7.34,7.42,7a15.25,15.25,0,0,1,3.44.52c1.42.26,2.61.85,2.42,2.57a2.87,2.87,0,0,1-2.49,2.72,13.84,13.84,0,0,1-2.49.17H761.23l-1.5,0a3.13,3.13,0,0,1-3.35-3c-.21-2.09,1.54-2.54,3-2.52,6.3.1,7.24-4,7.27-8.92.14-23.3.22-46.6.41-69.89,0-2.72-.61-3.9-3.63-3.68-5.47.4-11,.33-16.44.62-4.42.24-8.17,1.65-9.5,6.52-.48,1.77-1.5,3.16-3.51,2.8-2.28-.41-2.77-2.42-2.48-4.27.82-5.24,1.82-10.46,2.93-15.65C735,.55,737.48.27,739.54,1.2c4.29,1.93,8.78,1.74,13.22,1.77,17.81.12,35.62.08,53.43,0,3,0,6,.07,8.86-1,3.51-1.31,5.11.82,5.33,3.66a108.26,108.26,0,0,1,0,13.48c-.11,2.34-.92,5.05-3.5,5.38-2.83.36-3-2.27-3.39-4.51-.5-3.27-3-4.59-5.91-5.25-6.05-1.36-12.2-1.26-18.35-1.31-3.2,0-2.8,2.14-2.8,4.1C786.44,28.86,786.44,40.18,786.44,53.67Z" style="stroke:#000;stroke-miterlimit:10;stroke-width:1.4173228740692139px"/><path d="M341.52,19.41C331.12,5.3,315.67,1.11,298.91.83,290.18.17,282,2.23,274.14,5.59c-30.49,13-37.58,52.1-20.08,77,11.47,16.32,28.11,21.58,47.14,20.48,19.93-1.15,35.74-9.91,44.3-28.34C354.25,55.91,354.27,36.72,341.52,19.41ZM329.4,63a43.88,43.88,0,0,1-4.25,15.8c-4.82,9.49-12.39,14.46-27.24,14.33-11.07-.24-21.34-8.06-27.4-21.35-5.84-12.83-6.33-26.36-2.77-40,6.54-25,34.11-26.08,48.06-13.25C328.92,30.64,331.06,46.32,329.4,63Z" style="stroke:#000;stroke-miterlimit:10;stroke-width:1.4173228740692139px"/><path d="M555.76,95.56c-6.35-.63-11.16-3.91-15.41-8.4-8.84-9.31-16.55-19.55-24.56-29.54-1.45-1.8-.94-2.6.62-4a44.83,44.83,0,0,0,10.34-12.72c8.51-16.15.81-33.37-17-36.89-16.13-3.2-32.55-.17-48.82-1.28-1.87-.12-3.93.71-3.82,3,.13,2.65,2.56,2.7,4.5,3,7.24.93,7.75,1.38,7.78,8.61.06,11.5,0,23,0,34.49H469q0,18.74,0,37.47c0,3.61-1.33,6-5.45,6.31-2,.13-5-.12-4.59,3.14.34,2.83,3,2.66,5.15,2.67h31.45a16.65,16.65,0,0,0,2,0c1.78-.21,3.35-.87,3.42-2.93.06-1.89-1.42-2.47-3-2.73a14.21,14.21,0,0,0-3-.33c-4.49.15-6.36-2.38-6.48-6.45-.23-8-.32-16-.45-24,0-1.55,0-3.21,2.22-3.07,4.57.28,8.85.15,12.08,5,6.32,9.54,12.62,19.19,20.8,27.37a22.55,22.55,0,0,0,16,7.11c5.33.08,10.66,0,16,0,2.21,0,4.26-.39,4.43-2.91S557.55,95.74,555.76,95.56ZM507.67,47.87c-3.25,4.46-13.66,6.57-18.2,3.78-1.65-1-1.35-2.48-1.36-3.94,0-2.66,0-5.32,0-8v-8h0c0-5.15.14-10.31-.06-15.45-.12-3.14,1.29-4.11,4.12-4.16,6-.12,11.11,1.83,14.93,6.55C512.83,25.76,513.07,40.46,507.67,47.87Z" style="stroke:#000;stroke-miterlimit:10;stroke-width:1.4173228740692139px"/><path d="M749.28,125.15c0-4.83.1-9.66,0-14.48-.08-2.73.76-3.92,3.69-3.8,4.82.2,9.66.16,14.48,0,2.62-.08,3.54.88,3.51,3.47s-1.4,3-3.53,2.9-4,.18-6-.09c-4.22-.56-5.41,1.12-5.27,5.26.1,3.27,1.24,4.07,4.12,3.8,1.65-.16,3.33,0,5,0s2.8.6,2.76,2.61c0,1.86-.32,3.36-2.57,3.46-1.16,0-2.33,0-3.49,0-5.72,0-6.15.61-5.73,6.26.19,2.51,1.3,3,3.5,2.92,3-.14,6,0,9-.06,1.9,0,3.2.41,3.26,2.71s-.75,3.42-3.14,3.39q-8.24-.07-16.48,0c-2.41,0-3.16-1.12-3.11-3.4C749.35,135.13,749.28,130.14,749.28,125.15Z" style="stroke:#000;stroke-miterlimit:10;stroke-width:1.4173228740692139px"/><path d="M626.83,144.39a18.34,18.34,0,0,1-8.88-2.81c-1.53-.89-4.29-1.44-2.55-4.24,1.3-2.09,2.53-4.4,5.72-1.77a8.49,8.49,0,0,0,7,1.81c1.69-.34,3.16-1.16,3.62-3a3.45,3.45,0,0,0-2-4.11q-4.15-2.22-8.4-4.27c-4.18-2-6.39-5.15-6-9.9.4-4.54,3.26-7.28,7.17-8.73,4.58-1.71,9.16-.89,13.46,1.37,2.43,1.27,1.93,3,.87,5s-2.2,2.32-4,1.1a6.14,6.14,0,0,0-2.17-1.17c-2.92-.55-6.29-1.56-7.85,2-1.71,3.93,2.1,4.54,4.36,5.86,1.57.91,3.34,1.45,4.95,2.28,5.8,3,7.88,7,6.56,12.43C637.65,140.81,632.36,144.4,626.83,144.39Z" style="stroke:#000;stroke-miterlimit:10;stroke-width:1.4173228740692139px"/><path d="M788.69,106.62c2.6-.28,5.25.67,7.81,1.95,2.12,1.07,2.93,2.47,1.45,4.79-1.29,2-2.44,3-4.72,1.17a8.15,8.15,0,0,0-3.72-1.21c-2.68-.42-5.29.14-6.14,3-.78,2.59,1.52,3.68,3.46,4.69s4,2.2,6.06,3.24c5.88,3,8.1,6.77,6.8,11.63s-6.55,8.63-12.15,8.52a18.91,18.91,0,0,1-9.32-3.07c-1.46-.87-3.67-1.75-1.93-4.14,1.32-1.83,2.55-4.27,5.41-1.64a8.54,8.54,0,0,0,3.14,1.45c3.16,1.05,6.45.85,7.73-2.42s-2-4.38-4.35-5.56c-1.62-.82-3.33-1.48-5-2.3-5.78-2.92-8.24-7.06-7-11.73C777.55,109.8,782.11,106.66,788.69,106.62Z" style="stroke:#000;stroke-miterlimit:10;stroke-width:1.4173228740692139px"/><path d="M459,125.18c0-4.82.11-9.63,0-14.44-.08-2.7.7-4,3.64-3.87,4.8.17,9.62.09,14.44,0,2.22,0,3.38.68,3.37,3.14s-.89,3.35-3.24,3.22c-1.82-.09-3.65,0-5.48,0-5.33,0-7.45,3.14-5.63,8.15.62,1.68,1.88,1.61,3.21,1.62,1.66,0,3.32.07,5,0,2.27-.13,3.91.24,3.93,3.08,0,3.1-2,2.88-4.09,2.82h-1c-8.57,0-7-.35-7.08,7.23,0,1.33-.09,2.66,0,4,.24,2.63-1,3.55-3.49,3.51s-3.78-.72-3.59-3.45c.16-2.48,0-5,0-7.47S459,127.67,459,125.18Z" style="stroke:#000;stroke-miterlimit:10;stroke-width:1.4173228740692139px"/><path d="M659.35,128.74c0,3.82-.1,7.65,0,11.47.1,2.74-1.27,3.39-3.66,3.43s-3.61-.85-3.57-3.49c.12-7.48-.14-15,.14-22.45.13-3.57-1.06-4.85-4.51-4.46-1.64.19-3.32.07-5,.1-2.66,0-2.13-2-2.26-3.55s.22-3,2.33-3c8.48,0,17,0,25.44.05,2.24,0,2.67,1.38,2.7,3.3,0,2.08-.77,3-2.86,3.17-2.87.29-6.75-1.67-8.34,1.11-1.31,2.28-.42,5.82-.48,8.8C659.32,125.08,659.34,126.91,659.35,128.74Z" style="stroke:#000;stroke-miterlimit:10;stroke-width:1.4173228740692139px"/><path d="M501.78,106.63a18.31,18.31,0,0,0-18.55,18.66c.08,10.4,8.81,19.17,19,19.08s18.57-8.89,18.48-19.53C520.62,114.39,512.5,106.57,501.78,106.63Zm.38,30.83c-6.52.08-11.41-5.17-11.5-12.34-.08-6.73,4.84-11.92,11.34-11.94a11.91,11.91,0,0,1,11.73,12.24C513.59,131.9,508.32,137.39,502.16,137.46Z" style="stroke:#000;stroke-miterlimit:10;stroke-width:1.4173228740692139px"/><path d="M543.26,106.63c-10.81,0-18.75,7.71-18.78,18.37s8.32,19.43,18.64,19.35,18.78-8.95,18.71-19.49A18.26,18.26,0,0,0,543.26,106.63Zm-.44,30.84c-6.25-.12-11.54-6-11.39-12.67a11.53,11.53,0,0,1,11.76-11.61c6.56.06,11.17,5,11.12,12C554.25,132.39,549.38,137.59,542.82,137.47Z" style="stroke:#000;stroke-miterlimit:10;stroke-width:1.4173228740692139px"/><path d="M691.05,106.63c-10.57.07-18.36,7.77-18.44,18.23-.09,10.69,8.32,19.51,18.59,19.5,10.43,0,18.69-8.56,18.67-19.36C709.86,114.44,701.78,106.55,691.05,106.63Zm.35,30.92c-6.33,0-11.66-5.58-11.72-12.38a11.61,11.61,0,1,1,23.21-.29C703,131.46,697.51,137.5,691.4,137.55Z" style="stroke:#000;stroke-miterlimit:10;stroke-width:1.4173228740692139px"/><path d="M586.47,108.07c-5.25-1.45-10.57-.92-15.87-1.18-2.81-.13-2.81,1.59-2.81,3.54,0,5,0,10,0,15,0,4.83.06,9.67,0,14.49,0,2.11.26,3.64,2.86,3.58,5-.11,10,.35,14.94-.63,7.86-1.57,12.87-8,13.1-16.59C598.92,116.57,594.62,110.33,586.47,108.07Zm4.93,19.27c-1.31,7.23-7.7,11.63-14.63,10.22-1.77-.37-2-1.4-2-2.83,0-3.16,0-6.32,0-9.48,0-2.16,0-4.32,0-6.48,0-5.93.24-6.15,6.19-5.49C588.24,114.07,592.7,120.08,591.4,127.34Z" style="stroke:#000;stroke-miterlimit:10;stroke-width:1.4173228740692139px"/><path d="M741,138.52a36.33,36.33,0,0,0-3.1-5.67c-1.6-2.65-2.25-4.43.5-7.53,6.33-7.15,1-17.45-6.52-17.95-4.33-.29-8.64-.23-12.95-.45-2.44-.12-3.13,1.18-3.08,3.42.09,5,0,10,0,15,0,4.83.1,9.66,0,14.48-.07,2.51.69,3.72,3.34,3.71s4.07-.9,3.74-3.83a29.69,29.69,0,0,1,0-5c.11-1.83-.83-4.21,2.24-4.7,2.5-.4,4.11.59,5.21,2.83,1.46,3,2.89,6,4.63,8.82s5,2.55,7.12,1.33C744.54,141.61,741.6,140,741,138.52ZM727,124.13c-4.86.27-4.39-2.61-4.14-5.59-.21-3-.62-5.91,3.92-5.51,3.65.33,7.34.72,7.29,5.42C734,122.8,731,123.9,727,124.13Z" style="stroke:#000;stroke-miterlimit:10;stroke-width:1.4173228740692139px"/></svg>