<svg xmlns="http://www.w3.org/2000/svg" viewBox="0 0 821.31 104.2"><path d="M63.41,26.06c-7.54-1.68-14.31-3.22-21.32-2.23-6.5.91-12.78,2.39-18.08,6.49-6.65,5.13-9.31,12.15-8.19,20.28C17.32,61.39,27.51,65.93,38.44,61c5.46-2.44,5.67-2.26,5.88,3.53A38.82,38.82,0,0,1,43,76.91c-1.12,3.83.57,4.28,3.63,4.09a96.57,96.57,0,0,1,32.6,3.1c8.34,2.34,15.65,6.46,21.18,13.32A15.69,15.69,0,0,1,102,99.91a5.83,5.83,0,0,1,.16,1.83c-5.6-1.22-9.63-5.12-14.56-7.15-15-6.19-30.32-6.78-46-3.8-7.15,1.35-7.16,1.17-6-6,.64-3.94,1.12-7.91,1.8-11.83.49-2.83-.36-3.26-2.9-2.19-8.76,3.7-17,2.61-24.25-3.55C2.51,60.66-1,51.94,1.54,42.23c3-11.5,10.86-20.3,22.34-23.31,9.64-2.52,17.8-7.46,26.61-11.41C71.8-2,92.74-1.31,112.78,11.42a27.54,27.54,0,0,1,6.7,6c4.9,6.07,5,13.36-.27,19.05-1.75,1.9-2.15,2.61.53,3.71,14.7,6,12.6,31.32.76,38.27-6.32,3.72-12.12,1.8-17.71-2-1.3-.88-3.33-3.71-3.63.89-.13,1.83-1.48.75-2,.16a6.88,6.88,0,0,1-1.71-7C96.54,67,95,65.8,91.83,65c-6.8-1.62-13.54-3.39-20.56-3.89a169,169,0,0,0-20.52-.09c11.07-5.68,34.49-6.27,45.05-1.4,3.51,1.62,6.15,3.4,4.25,7.85-1.32,3.08.2,4.42,3.06,5.39,7.26,2.47,13.59-1,15-8.5A17.07,17.07,0,0,0,100.6,43.9a9.2,9.2,0,0,1-6-1.36c2.42-1.95,4.72-3.54,6.71-5.45C106,32.63,106,28.17,101,23.84a40.11,40.11,0,0,0-24.4-9.78A72.17,72.17,0,0,0,50.07,17C55.33,19.48,60.1,21,63.41,26.06Z" style="stroke:#000;stroke-miterlimit:10;stroke-width:1.4173228740692139px"/><path d="M557.44,45.24c-1.09,7.83-2.2,15.66-3.26,23.49-.71,5.27-1.46,10.54-2,15.84-.3,3-1.32,3.73-3.56,1.53s-4.65-4.75-6.86-7.23a5.69,5.69,0,0,1-1.18-5.08C544.07,52,547.39,30.1,550.77,8.25a17.23,17.23,0,0,1,.93-3.84c.67-1.64,1.17-3.47,3.6-3.56,2.18-.09,2.89,1.45,3.62,2.87,4.16,8.13,8.31,16.27,12.34,24.47,6.53,13.27,13,26.59,19.45,39.88.56,1.14.81,2.54,2.56,3.44q8-16.53,16-33,7.6-15.71,15.25-31.39A22.73,22.73,0,0,1,626.1,4c1-1.44,1.65-3.4,4-3.15,2.59.27,3.14,2.4,3.48,4.26,1.22,6.71,2.25,13.45,3.25,20.19,3,20.39,6,40.79,9,61.18,1,6.58,3.49,8.7,10.73,9.38,1.92.19,4.54-.31,4.59,2.52s-2.55,3.24-4.73,3.21c-9-.11-18-.16-26.93-.69-2.78-.17-6.06-1.5-3-5.51a4.62,4.62,0,0,0,.83-3.74c-2.23-15.78-4.39-31.58-6.58-47.4-2.37-.06-2.47,2-3.15,3.34-7.77,15.81-15.49,31.64-23.29,47.43-1.22,2.47-2,6-5.23,6.11-3.52.12-4.36-3.6-5.72-6.15C574.73,78.62,566.56,61.94,557.44,45.24Z" style="stroke:#000;stroke-miterlimit:10;stroke-width:1.4173228740692139px"/><path d="M219.58,50.85c5.32,0,10.64,0,16,0,2,0,4.34,0,4.37,2.82,0,2.4-2,2.79-3.9,2.86-4.52.18-6,3-6,7,0,9.16-.16,18.32,0,27.48.08,3.88-1.2,6.37-5,7.52-25.55,7.79-50.2,7.61-72.61-9-8.8-6.54-13.36-16-15.2-26.65-4.23-24.39,6-48.12,30.16-57.7,13.79-5.47,28-4.86,42.27-3.37,5.28.55,10.47,1.93,15.74,2.53,3.24.37,4.38,1.93,4.24,4.89-.34,6.63-.71,13.26-1,19.89-.09,1.86-.59,3.26-2.78,3.39A2.68,2.68,0,0,1,222.71,30c-1.59-11.36-10-15.3-19.55-17.76a44.6,44.6,0,0,0-22.74-.11c-12,3.22-19.2,11.26-21.85,23.47-4.51,20.83,2.56,41.06,18.17,51.26,9.08,5.93,19.18,7.1,29.71,5.9,3-.34,4.21-2.12,4.17-5.13-.1-7.66,0-15.32-.05-23,0-6.13-1.35-7.6-7.48-8.19-2.13-.21-4.82.29-4.54-3,.26-3.15,3-2.54,5.06-2.57,5.32-.08,10.64,0,16,0Z" style="stroke:#000;stroke-miterlimit:10;stroke-width:1.4173228740692139px"/><path d="M359.93,40.85c0-8.32-.09-16.65,0-25,.07-4.73-1.82-7.28-6.76-7.12a10.35,10.35,0,0,1-2.48-.2c-1.48-.33-3.08-.73-3.12-2.65s1.31-2.91,3.18-3.12a16.57,16.57,0,0,1,2-.09c10.82.13,21.64.59,32.46,0,2.25-.12,4.7-.06,4.85,2.91.14,2.76-2.34,3.05-4.27,3.07-4.13,0-5.56,2.23-5.61,6-.27,19.46-1.52,39,.84,58.36,1.34,11,9.15,21.06,24.6,19.83,10.93-.88,19.08-8.69,20.08-21,1.55-19.1,1.19-38.24.39-57.37-.16-3.68-2-5.45-5.56-5.68a17.14,17.14,0,0,1-3.46-.28c-1.43-.4-3.07-1-2.9-2.9.16-1.68,1.56-2.46,3.1-2.8a8.78,8.78,0,0,1,2-.09h27.46c2.24,0,4.72,0,4.9,2.94s-2.58,3-4.33,3c-4.63.06-6,2.36-6,6.62,0,14.83-.17,29.65-.27,44.47a66.13,66.13,0,0,1-2.09,16.31c-3.64,14-12.74,22.84-26.83,25.9-12,2.59-23.93,2.28-34.88-4-12.68-7.29-16.28-19.58-16.89-33.08-.36-8-.06-16-.06-24Z" style="stroke:#000;stroke-miterlimit:10;stroke-width:1.4173228740692139px"/><path d="M697.68,101.79c-10-1.26-18.3-.44-26.62-.34-2.37,0-5.18.29-5.6-2.76-.46-3.34,2.78-3,4.61-3,5.48-.24,5.23-4.26,5.48-7.84.92-13.3.42-26.63.47-39.95,0-10.66-.14-21.33-.16-32,0-4.95-2.23-7.35-7.31-7.15-2.11.08-4.94,0-5-2.79-.07-3.12,2.7-3.26,5.15-3.24,14.49.11,29,.25,43.47.31,3.64,0,7.28.08,10.85-1.17,3-1,4.52.5,4.27,3.53-.43,5.3-1,10.59-1.57,15.88-.18,1.71-1.13,2.88-2.87,2.85a2.71,2.71,0,0,1-2.9-2.82c0-6.3-4-7.7-9.24-7.85-4.79-.14-10.76-2.26-14,.54s-.75,8.77-1,13.35c-.21,4.32-.05,8.66-.05,13,0,1.68-.13,3.69,2.29,3.59,6.14-.25,12.33.72,18.43-.63a10.12,10.12,0,0,0,2.81-1c1.64-1,3-3.14,5.2-1.37,1.93,1.54.87,3.73.74,5.64-.3,4.64-.76,9.27-1.11,13.91-.16,2-.7,3.87-2.89,4.08-2.43.25-2.9-1.77-3.07-3.68-.42-4.6-2.75-6.81-7.52-6.68-3.81.11-7.64-.14-11.46-.4-2.71-.19-3.47,1.1-3.45,3.56.06,8.83,0,17.66,0,26.49,0,4.38,2.1,7,6.53,7.2,4,.22,8,.33,12,.21,5.42-.16,9.17-2.5,10.14-8.33.31-1.85.65-4.27,3.54-3.91,3.06.39,2.77,2.81,2.75,5,0,.33-.11.66-.14,1-2.07,20-1.48,16.55-17.93,16.81C707,101.86,701.51,101.79,697.68,101.79Z" style="stroke:#000;stroke-miterlimit:10;stroke-width:1.4173228740692139px"/><path d="M786.44,53.67c.42,10.13-.49,22.44.41,34.75.37,5,2.37,7.34,7.42,7a15.25,15.25,0,0,1,3.44.52c1.42.26,2.61.85,2.42,2.57a2.87,2.87,0,0,1-2.49,2.72,13.84,13.84,0,0,1-2.49.17H761.23l-1.5,0a3.13,3.13,0,0,1-3.35-3c-.21-2.09,1.54-2.54,3-2.52,6.3.1,7.24-4,7.27-8.92.14-23.3.22-46.6.41-69.89,0-2.72-.61-3.9-3.63-3.68-5.47.4-11,.33-16.44.62-4.42.24-8.17,1.65-9.5,6.52-.48,1.77-1.5,3.16-3.51,2.8-2.28-.41-2.77-2.42-2.48-4.27.82-5.24,1.82-10.46,2.93-15.65C735,.55,737.48.27,739.54,1.2c4.29,1.93,8.78,1.74,13.22,1.77,17.81.12,35.62.08,53.43,0,3,0,6,.07,8.86-1,3.51-1.31,5.11.82,5.33,3.66a108.26,108.26,0,0,1,0,13.48c-.11,2.34-.92,5.05-3.5,5.38-2.83.36-3-2.27-3.39-4.51-.5-3.27-3-4.59-5.91-5.25-6.05-1.36-12.2-1.26-18.35-1.31-3.2,0-2.8,2.14-2.8,4.1C786.44,28.86,786.44,40.18,786.44,53.67Z" style="stroke:#000;stroke-miterlimit:10;stroke-width:1.4173228740692139px"/><path d="M341.52,19.41C331.12,5.3,315.67,1.11,298.91.83,290.18.17,282,2.23,274.14,5.59c-30.49,13-37.58,52.1-20.08,77,11.47,16.32,28.11,21.58,47.14,20.48,19.93-1.15,35.74-9.91,44.3-28.34C354.25,55.91,354.27,36.72,341.52,19.41ZM329.4,63a43.88,43.88,0,0,1-4.25,15.8c-4.82,9.49-12.39,14.46-27.24,14.33-11.07-.24-21.34-8.06-27.4-21.35-5.84-12.83-6.33-26.36-2.77-40,6.54-25,34.11-26.08,48.06-13.25C328.92,30.64,331.06,46.32,329.4,63Z" style="stroke:#000;stroke-miterlimit:10;stroke-width:1.4173228740692139px"/><path d="M555.76,95.56c-6.35-.63-11.16-3.91-15.41-8.4-8.84-9.31-16.55-19.55-24.56-29.54-1.45-1.8-.94-2.6.62-4a44.83,44.83,0,0,0,10.34-12.72c8.51-16.15.81-33.37-17-36.89-16.13-3.2-32.55-.17-48.82-1.28-1.87-.12-3.93.71-3.82,3,.13,2.65,2.56,2.7,4.5,3,7.24.93,7.75,1.38,7.78,8.61.06,11.5,0,23,0,34.49H469q0,18.74,0,37.47c0,3.61-1.33,6-5.45,6.31-2,.13-5-.12-4.59,3.14.34,2.83,3,2.66,5.15,2.67h31.45a16.65,16.65,0,0,0,2,0c1.78-.21,3.35-.87,3.42-2.93.06-1.89-1.42-2.47-3-2.73a14.21,14.21,0,0,0-3-.33c-4.49.15-6.36-2.38-6.48-6.45-.23-8-.32-16-.45-24,0-1.55,0-3.21,2.22-3.07,4.57.28,8.85.15,12.08,5,6.32,9.54,12.62,19.19,20.8,27.37a22.55,22.55,0,0,0,16,7.11c5.33.08,10.66,0,16,0,2.21,0,4.26-.39,4.43-2.91S557.55,95.74,555.76,95.56ZM507.67,47.87c-3.25,4.46-13.66,6.57-18.2,3.78-1.65-1-1.35-2.48-1.36-3.94,0-2.66,0-5.32,0-8v-8h0c0-5.15.14-10.31-.06-15.45-.12-3.14,1.29-4.11,4.12-4.16,6-.12,11.11,1.83,14.93,6.55C512.83,25.76,513.07,40.46,507.67,47.87Z" style="stroke:#000;stroke-miterlimit:10;stroke-width:1.4173228740692139px"/></svg>