<svg xmlns="http://www.w3.org/2000/svg" viewBox="0 0 685.68 104.2"><path d="M421.81,45.24c-1.09,7.83-2.2,15.66-3.26,23.49-.71,5.27-1.46,10.54-2,15.84-.29,3-1.32,3.73-3.56,1.53s-4.65-4.75-6.86-7.23A5.69,5.69,0,0,1,405,73.79C408.44,52,411.76,30.1,415.14,8.25a16.71,16.71,0,0,1,.94-3.84c.66-1.64,1.17-3.47,3.59-3.56,2.18-.09,2.89,1.45,3.62,2.87,4.16,8.13,8.31,16.27,12.34,24.47,6.53,13.27,12.95,26.59,19.46,39.88.56,1.14.81,2.54,2.56,3.44q8-16.53,16-33,7.62-15.71,15.26-31.39a23.86,23.86,0,0,1,1.6-3.1c1-1.44,1.65-3.4,4-3.15,2.59.27,3.15,2.4,3.48,4.26,1.22,6.71,2.25,13.45,3.26,20.19,3,20.39,6,40.79,9,61.18,1,6.58,3.48,8.7,10.72,9.38,1.93.19,4.54-.31,4.6,2.52s-2.56,3.24-4.74,3.21c-9-.11-18-.16-26.93-.69-2.78-.17-6.06-1.5-3-5.51a4.58,4.58,0,0,0,.83-3.74q-3.35-23.67-6.57-47.4c-2.38-.06-2.48,2-3.15,3.34-7.78,15.81-15.49,31.64-23.29,47.43-1.22,2.47-2.05,6-5.24,6.11-3.52.12-4.36-3.6-5.72-6.15C439.1,78.62,430.93,61.94,421.81,45.24Z" style="stroke:#000;stroke-miterlimit:10;stroke-width:1.4173228740692139px"/><path d="M84,50.85c5.32,0,10.64,0,16,0,2,0,4.34,0,4.38,2.82,0,2.4-2,2.79-3.91,2.86-4.52.18-6,3-6,7,0,9.16-.17,18.32,0,27.48.07,3.88-1.21,6.37-5,7.52-25.55,7.79-50.19,7.61-72.6-9C8,82.94,3.49,73.47,1.64,62.83c-4.23-24.39,6-48.12,30.16-57.7C45.6-.34,59.8.27,74.07,1.76c5.28.55,10.47,1.93,15.75,2.53,3.23.37,4.38,1.93,4.23,4.89-.34,6.63-.71,13.26-1,19.89-.09,1.86-.58,3.26-2.78,3.39A2.68,2.68,0,0,1,87.08,30c-1.58-11.36-10-15.3-19.55-17.76a44.6,44.6,0,0,0-22.74-.11c-12,3.22-19.2,11.26-21.84,23.47C18.44,56.42,25.5,76.65,41.12,86.85c9.07,5.93,19.18,7.1,29.7,5.9,3-.34,4.21-2.12,4.17-5.13-.1-7.66,0-15.32,0-23,0-6.13-1.35-7.6-7.47-8.19-2.14-.21-4.82.29-4.55-3,.26-3.15,3-2.54,5.06-2.57,5.32-.08,10.64,0,16,0Z" style="stroke:#000;stroke-miterlimit:10;stroke-width:1.4173228740692139px"/><path d="M224.3,40.85c0-8.32-.09-16.65,0-25,.07-4.73-1.82-7.28-6.75-7.12a10.26,10.26,0,0,1-2.48-.2c-1.49-.33-3.08-.73-3.13-2.65s1.32-2.91,3.18-3.12a16.64,16.64,0,0,1,2-.09c10.81.13,21.63.59,32.45,0,2.25-.12,4.7-.06,4.85,2.91.14,2.76-2.34,3.05-4.27,3.07-4.13,0-5.56,2.23-5.61,6-.26,19.46-1.52,39,.84,58.36,1.34,11,9.15,21.06,24.6,19.83,10.93-.88,19.09-8.69,20.09-21,1.54-19.1,1.18-38.24.38-57.37-.16-3.68-2-5.45-5.56-5.68a17.26,17.26,0,0,1-3.46-.28c-1.42-.4-3.07-1-2.89-2.9.15-1.68,1.55-2.46,3.09-2.8a8.8,8.8,0,0,1,2-.09h27.46c2.24,0,4.72,0,4.9,2.94s-2.58,3-4.33,3c-4.62.06-6,2.36-6,6.62,0,14.83-.18,29.65-.27,44.47a67.09,67.09,0,0,1-2.09,16.31c-3.65,14-12.75,22.84-26.83,25.9-12,2.59-23.93,2.28-34.89-4-12.68-7.29-16.27-19.58-16.88-33.08-.36-8-.07-16-.07-24Z" style="stroke:#000;stroke-miterlimit:10;stroke-width:1.4173228740692139px"/><path d="M562.05,101.79c-10-1.26-18.3-.44-26.62-.34-2.37,0-5.18.29-5.6-2.76-.45-3.34,2.78-3,4.61-3,5.48-.24,5.23-4.26,5.48-7.84.92-13.3.43-26.63.48-39.95,0-10.66-.15-21.33-.16-32,0-4.95-2.24-7.35-7.31-7.15-2.12.08-4.94,0-5-2.79-.07-3.12,2.7-3.26,5.15-3.24,14.49.11,29,.25,43.47.31,3.64,0,7.28.08,10.85-1.17,3-1,4.52.5,4.27,3.53-.43,5.3-1,10.59-1.57,15.88-.18,1.71-1.13,2.88-2.87,2.85a2.72,2.72,0,0,1-2.9-2.82c0-6.3-4-7.7-9.23-7.85-4.8-.14-10.77-2.26-14,.54s-.74,8.77-1,13.35c-.22,4.32-.06,8.66-.05,13,0,1.68-.14,3.69,2.28,3.59,6.15-.25,12.34.72,18.43-.63a10.12,10.12,0,0,0,2.81-1c1.64-1,3-3.14,5.2-1.37,1.93,1.54.87,3.73.75,5.64-.3,4.64-.77,9.27-1.12,13.91-.15,2-.7,3.87-2.89,4.08-2.43.25-2.9-1.77-3.07-3.68-.42-4.6-2.75-6.81-7.51-6.68-3.82.11-7.65-.14-11.46-.4-2.72-.19-3.47,1.1-3.46,3.56.07,8.83,0,17.66,0,26.49,0,4.38,2.1,7,6.53,7.2,4,.22,8,.33,12,.21,5.42-.16,9.16-2.5,10.14-8.33.31-1.85.64-4.27,3.53-3.91,3.06.39,2.77,2.81,2.76,5,0,.33-.12.66-.15,1-2.07,20-1.48,16.55-17.92,16.81C571.37,101.86,565.88,101.79,562.05,101.79Z" style="stroke:#000;stroke-miterlimit:10;stroke-width:1.4173228740692139px"/><path d="M650.82,53.67c.41,10.13-.5,22.44.41,34.75.36,5,2.36,7.34,7.41,7a15.16,15.16,0,0,1,3.44.52c1.42.26,2.62.85,2.42,2.57a2.87,2.87,0,0,1-2.49,2.72,13.73,13.73,0,0,1-2.48.17H625.61l-1.5,0a3.12,3.12,0,0,1-3.35-3c-.21-2.09,1.53-2.54,3-2.52,6.3.1,7.25-4,7.28-8.92.13-23.3.21-46.6.41-69.89,0-2.72-.62-3.9-3.64-3.68-5.46.4-11,.33-16.44.62-4.41.24-8.17,1.65-9.5,6.52-.48,1.77-1.5,3.16-3.5,2.8-2.28-.41-2.78-2.42-2.49-4.27.83-5.24,1.82-10.46,2.93-15.65.61-2.87,3.05-3.15,5.11-2.22C608.2,3.13,612.7,2.94,617.13,3c17.81.12,35.62.08,53.44,0,3,0,6,.07,8.85-1,3.52-1.31,5.11.82,5.33,3.66a108.26,108.26,0,0,1,0,13.48c-.11,2.34-.92,5.05-3.5,5.38-2.83.36-3-2.27-3.39-4.51-.5-3.27-3-4.59-5.91-5.25-6.05-1.36-12.2-1.26-18.35-1.31-3.2,0-2.79,2.14-2.8,4.1C650.81,28.86,650.82,40.18,650.82,53.67Z" style="stroke:#000;stroke-miterlimit:10;stroke-width:1.4173228740692139px"/><path d="M205.89,19.41C195.5,5.3,180,1.11,163.28.83c-8.72-.66-16.89,1.4-24.76,4.76-30.5,13-37.59,52.1-20.08,77,11.47,16.32,28.1,21.58,47.13,20.48,19.93-1.15,35.74-9.91,44.3-28.34C218.62,55.91,218.65,36.72,205.89,19.41ZM193.77,63a43.88,43.88,0,0,1-4.25,15.8c-4.82,9.49-12.39,14.46-27.23,14.33-11.08-.24-21.35-8.06-27.4-21.35-5.85-12.83-6.33-26.36-2.78-40,6.54-25,34.11-26.08,48.06-13.25C193.29,30.64,195.43,46.32,193.77,63Z" style="stroke:#000;stroke-miterlimit:10;stroke-width:1.4173228740692139px"/><path d="M420.14,95.56c-6.36-.63-11.16-3.91-15.42-8.4-8.83-9.31-16.55-19.55-24.56-29.54-1.45-1.8-.94-2.6.62-4a44.83,44.83,0,0,0,10.34-12.72c8.51-16.15.82-33.37-17-36.89C358,.85,341.57,3.88,325.31,2.77c-1.87-.12-3.93.71-3.83,3,.13,2.65,2.56,2.7,4.51,3,7.24.93,7.74,1.38,7.78,8.61.05,11.5,0,23,0,34.49h-.38c0,12.49,0,25,0,37.47,0,3.61-1.33,6-5.45,6.31-2,.13-5-.12-4.58,3.14.33,2.83,3,2.66,5.14,2.67H360a16.53,16.53,0,0,0,2,0c1.79-.21,3.35-.87,3.42-2.93.06-1.89-1.41-2.47-3-2.73a14.3,14.3,0,0,0-3-.33c-4.49.15-6.36-2.38-6.47-6.45-.23-8-.33-16-.45-24,0-1.55,0-3.21,2.21-3.07,4.57.28,8.85.15,12.08,5,6.33,9.54,12.62,19.19,20.8,27.37a22.55,22.55,0,0,0,16,7.11c5.33.08,10.66,0,16,0,2.21,0,4.26-.39,4.43-2.91S421.92,95.74,420.14,95.56ZM372.05,47.87c-3.26,4.46-13.67,6.57-18.21,3.78-1.65-1-1.35-2.48-1.36-3.94,0-2.66,0-5.32,0-8v-8h0c0-5.15.15-10.31-.06-15.45-.12-3.14,1.29-4.11,4.12-4.16,6-.12,11.11,1.83,14.93,6.55C377.2,25.76,377.44,40.46,372.05,47.87Z" style="stroke:#000;stroke-miterlimit:10;stroke-width:1.4173228740692139px"/></svg>