<svg xmlns="http://www.w3.org/2000/svg" viewBox="0 0 130.79 102.32"><path d="M63.41,25.75c-7.54-1.68-14.31-3.22-21.32-2.24-6.5.92-12.78,2.4-18.08,6.49-6.65,5.14-9.31,12.15-8.19,20.28,1.5,10.8,11.69,15.33,22.62,10.43,5.46-2.45,5.67-2.26,5.88,3.52A38.79,38.79,0,0,1,43,76.59c-1.12,3.83.57,4.29,3.63,4.09a96.83,96.83,0,0,1,32.6,3.1c8.34,2.34,15.65,6.46,21.18,13.32A15.33,15.33,0,0,1,102,99.6a5.83,5.83,0,0,1,.16,1.83c-5.6-1.23-9.63-5.13-14.56-7.16-15-6.19-30.32-6.78-46-3.8-7.15,1.35-7.16,1.17-6-6,.64-3.94,1.12-7.9,1.8-11.83.49-2.83-.36-3.26-2.9-2.18-8.76,3.69-17,2.6-24.25-3.56C2.51,60.35-1,51.63,1.54,41.92c3-11.51,10.86-20.3,22.34-23.31,9.64-2.53,17.8-7.46,26.61-11.41,21.31-9.55,42.25-8.82,62.29,3.9a27.75,27.75,0,0,1,6.7,6c4.9,6.08,5,13.37-.27,19.05-1.75,1.91-2.15,2.62.53,3.72,14.7,6,12.6,31.31.76,38.27-6.32,3.72-12.12,1.79-17.71-2-1.3-.88-3.33-3.72-3.63.88-.13,1.83-1.48.75-2,.17a6.88,6.88,0,0,1-1.71-7c1.13-3.57-.41-4.72-3.58-5.48C85,63.1,78.29,61.34,71.27,60.84a167,167,0,0,0-20.52-.09c11.07-5.68,34.49-6.28,45.05-1.41,3.51,1.62,6.15,3.4,4.25,7.86-1.32,3.08.2,4.42,3.06,5.39,7.26,2.47,13.59-1,15-8.51a17.07,17.07,0,0,0-17.54-20.5,9.14,9.14,0,0,1-6-1.36c2.42-1.94,4.72-3.53,6.71-5.45C106,32.31,106,27.86,101,23.52a40.1,40.1,0,0,0-24.4-9.77,72,72,0,0,0-26.54,2.91C55.33,19.16,60.1,20.63,63.41,25.75Z" style="stroke:#000;stroke-miterlimit:10;stroke-width:1.4173228740692139px"/></svg>