<svg width="201" height="37" viewBox="0 0 201 37" fill="none" xmlns="http://www.w3.org/2000/svg">
<path fill-rule="evenodd" clip-rule="evenodd" d="M58.9219 12.6768C58.8482 12.6082 58.7679 12.5614 58.6918 12.5287C58.5768 12.4798 58.4704 12.4589 58.3649 12.4455C58.2597 12.4329 58.1545 12.429 58.0434 12.429C57.527 12.429 56.8652 12.4518 56.2124 12.4743C55.5612 12.4968 54.9187 12.5192 54.4614 12.5192C54.0143 12.5192 53.3 12.4968 52.5019 12.4743C51.7034 12.4518 50.8183 12.429 50.0123 12.429C49.8925 12.429 49.781 12.4329 49.6711 12.4459C49.588 12.4558 49.5057 12.4704 49.4194 12.4979C49.3548 12.5184 49.2874 12.5464 49.2193 12.5885C49.118 12.6496 49.0156 12.7501 48.953 12.8722C48.8892 12.9939 48.8675 13.1235 48.8679 13.235C48.8663 13.3658 48.9073 13.5167 48.9896 13.6333C49.0499 13.7215 49.1267 13.7881 49.2015 13.835C49.315 13.9051 49.4237 13.9378 49.5269 13.9583C49.6305 13.978 49.731 13.9846 49.8326 13.9846C50.0327 13.9846 50.2597 13.9929 50.4602 14.0071C50.5602 14.0146 50.654 14.0233 50.7328 14.0331C50.8116 14.0426 50.8766 14.0536 50.9108 14.0615L50.914 14.0623L50.9171 14.063C51.1366 14.1103 51.2973 14.169 51.4096 14.2309C51.4942 14.2777 51.5522 14.3246 51.5994 14.3758C51.6688 14.453 51.7215 14.5464 51.7653 14.7012C51.8082 14.8549 51.835 15.066 51.8417 15.3351V15.3358C51.8673 16.2399 51.8673 17.4052 51.8673 18.934V21.8232C51.8685 22.0442 51.8385 22.2037 51.7956 22.2955C51.7739 22.3428 51.7511 22.3759 51.7204 22.4074C51.6892 22.4385 51.6483 22.4692 51.5821 22.5011C51.2981 22.6315 50.8939 22.7131 50.4653 22.7509C50.0343 22.7903 49.5801 22.7911 49.1803 22.7907C47.6286 22.7907 46.225 22.4948 44.9888 21.9575C43.1349 21.1507 41.6514 19.8011 40.6216 18.0524C39.5931 16.3045 39.0219 14.1556 39.0219 11.7648C39.0219 9.9283 39.2897 8.47507 39.7506 7.32163C40.2119 6.16779 40.8615 5.30862 41.6597 4.63893C42.6693 3.803 43.6865 3.36258 44.663 3.12346C45.64 2.88474 46.576 2.85283 47.4052 2.85283C49.0704 2.85283 50.4854 3.19122 51.5888 3.64267C52.1403 3.86839 52.6138 4.12248 52.9987 4.3746C53.3832 4.62593 53.6802 4.87726 53.8748 5.08605C54.2203 5.45753 54.4228 5.84713 54.5547 6.23515C54.6859 6.62279 54.7426 7.00609 54.7864 7.35196L54.7868 7.35826L54.7875 7.3626C54.7986 7.43666 54.8124 7.5119 54.836 7.59384C54.8537 7.6549 54.877 7.7199 54.9136 7.78844C54.9672 7.89008 55.059 8.00471 55.1882 8.08113C55.3166 8.15874 55.4635 8.18829 55.59 8.1875C55.7019 8.1875 55.8374 8.17095 55.9757 8.10044C56.0785 8.04844 56.1726 7.96492 56.236 7.87432C56.333 7.73605 56.3716 7.59817 56.3952 7.4662C56.418 7.33305 56.4247 7.19754 56.4247 7.04272C56.4251 5.15223 56.4799 3.99957 56.5339 3.28222C56.5606 2.92334 56.5874 2.67398 56.6079 2.48883C56.628 2.30211 56.6442 2.18471 56.6453 2.04723C56.645 1.96805 56.6406 1.87626 56.6103 1.76714C56.5878 1.68639 56.5473 1.59578 56.485 1.51424C56.4385 1.45357 56.381 1.3996 56.3203 1.35706C56.2286 1.29284 56.132 1.25384 56.0383 1.22824C55.9437 1.20224 55.85 1.18885 55.7495 1.18097L55.7421 1.18057L55.7354 1.18018C55.4167 1.16521 54.9821 1.11321 54.5535 1.04939C54.1289 0.985969 53.707 0.911909 53.3899 0.852031C53.2985 0.829576 53.1897 0.807122 53.0562 0.782698C52.5594 0.692093 51.7405 0.577852 50.8033 0.484489C49.8665 0.39152 48.8167 0.319824 47.8661 0.319824C46.5645 0.319824 45.2043 0.373005 43.7838 0.658608C42.364 0.943818 40.886 1.46421 39.361 2.38562H39.3614C37.8948 3.26961 36.5019 4.60702 35.4721 6.36437C34.4424 8.12092 33.781 10.299 33.7817 12.8399C33.7813 15.0195 34.2115 16.9073 34.9895 18.5043C35.5722 19.7018 36.3498 20.7343 37.2756 21.6034C38.665 22.9081 40.3845 23.8452 42.29 24.4562C44.1966 25.0676 46.2908 25.354 48.4472 25.354C49.668 25.354 51.0416 25.2681 52.3751 25.0475C53.709 24.8261 55.0022 24.4732 56.0698 23.9146L56.0804 23.9091L56.0907 23.9031C56.1872 23.8456 56.2833 23.7901 56.3877 23.6971C56.4649 23.6282 56.5425 23.5336 56.5953 23.4281C56.6351 23.3493 56.6623 23.2677 56.6804 23.1885C56.708 23.0692 56.7186 22.953 56.7253 22.8222C56.7316 22.6914 56.7328 22.5445 56.7328 22.3672V19.0006C56.7328 17.467 56.7328 16.2403 56.7686 15.3414V15.3394L56.769 15.3347C56.7753 15.0888 56.7978 14.886 56.8336 14.7272C56.8604 14.6079 56.8943 14.5137 56.9313 14.4408C56.9885 14.3313 57.0464 14.2671 57.1307 14.2084C57.215 14.1513 57.3359 14.1005 57.5175 14.067C57.6964 14.0394 57.8354 14.0185 57.9505 14.0051C58.0682 13.9913 58.1608 13.9846 58.2597 13.9846C58.3408 13.9846 58.424 13.9787 58.5106 13.9614C58.639 13.935 58.7844 13.887 58.9231 13.7636C58.9916 13.7022 59.0539 13.6203 59.0948 13.5261C59.1366 13.4324 59.1555 13.3299 59.1551 13.235C59.1551 13.1684 59.148 13.0979 59.1291 13.025C59.0972 12.8978 59.0208 12.7666 58.9219 12.6768Z" fill="white"/>
<path fill-rule="evenodd" clip-rule="evenodd" d="M111.869 0.978422C111.793 0.916574 111.714 0.876787 111.64 0.848817C111.528 0.807454 111.425 0.789333 111.319 0.777515C111.214 0.766485 111.106 0.762939 110.99 0.762939C110.384 0.762939 109.606 0.786576 108.933 0.809818C108.597 0.821636 108.286 0.833454 108.039 0.84212C107.8 0.850393 107.616 0.856302 107.539 0.856302C107.526 0.855908 107.49 0.854332 107.439 0.851969C107 0.832666 105.395 0.762939 104.045 0.762939C103.927 0.762939 103.817 0.766485 103.71 0.778303C103.629 0.787363 103.55 0.800363 103.467 0.824393C103.406 0.842514 103.341 0.866544 103.275 0.90318C103.177 0.956756 103.071 1.04657 103.001 1.16672C102.93 1.28648 102.903 1.42278 102.904 1.53623C102.904 1.59769 102.91 1.66348 102.927 1.73123C102.956 1.84941 103.024 1.9735 103.115 2.06174C103.183 2.12871 103.258 2.17598 103.329 2.20908C103.437 2.25871 103.537 2.27998 103.633 2.29338C103.729 2.30677 103.823 2.31032 103.922 2.31071C104.073 2.31032 104.275 2.31701 104.463 2.33041C104.556 2.3371 104.647 2.34538 104.723 2.35523C104.798 2.36468 104.862 2.3761 104.893 2.38398L104.902 2.38635L104.911 2.38832C105.129 2.43441 105.284 2.49192 105.39 2.55101C105.47 2.59553 105.523 2.63965 105.568 2.68928C105.633 2.76295 105.685 2.85749 105.729 3.01546C105.774 3.17185 105.804 3.38734 105.82 3.65915C105.849 4.13502 105.863 4.57584 105.871 5.48228C105.878 6.38833 105.878 7.75332 105.878 10.0606V13.8506C105.879 15.4075 105.854 16.8481 105.632 18.0713C105.522 18.6827 105.364 19.2393 105.142 19.7317C104.92 20.2249 104.635 20.6543 104.266 21.0246C103.717 21.571 103.072 21.9433 102.405 22.1804C101.738 22.4176 101.049 22.5168 100.433 22.5168C99.9354 22.5168 99.3757 22.4877 98.7871 22.3321C98.1982 22.1765 97.5805 21.898 96.9541 21.3811L96.953 21.3799C96.6126 21.1002 96.3148 20.7914 96.0524 20.4191C95.6601 19.8609 95.3433 19.1534 95.1212 18.1698C94.8994 17.1869 94.7765 15.9306 94.7769 14.306V10.0606C94.7769 7.75332 94.7769 6.38833 94.784 5.48228C94.791 4.57544 94.8056 4.13424 94.834 3.65797V3.65758C94.8486 3.40743 94.8734 3.19943 94.9092 3.03713C94.936 2.9154 94.9687 2.81967 95.0034 2.7468C95.057 2.63728 95.1074 2.57977 95.1814 2.52659C95.2555 2.47419 95.3674 2.42495 95.5486 2.39107C95.7239 2.36074 95.848 2.34065 95.9599 2.32844C96.0729 2.31623 96.1781 2.31071 96.3302 2.31071C96.4227 2.31032 96.5145 2.30638 96.6095 2.2922C96.6808 2.28156 96.7544 2.26541 96.8324 2.23626C96.8907 2.21459 96.9518 2.18505 97.0124 2.14329C97.1031 2.08183 97.1917 1.9869 97.2464 1.87462C97.3024 1.76275 97.3237 1.6426 97.3233 1.53623C97.3233 1.46769 97.3146 1.39205 97.291 1.31563C97.2705 1.24866 97.2382 1.18169 97.1968 1.1226C97.1239 1.01821 97.0266 0.943756 96.9364 0.896483C96.7993 0.825969 96.6748 0.801151 96.5492 0.783818C96.4235 0.767667 96.2947 0.762939 96.1521 0.762939C95.5927 0.762939 94.8391 0.786576 94.1324 0.809818C93.4272 0.833454 92.7654 0.856302 92.4223 0.856302C91.9827 0.856302 91.276 0.833454 90.4822 0.809818C89.6876 0.786576 88.8032 0.762939 87.9901 0.762939C87.8645 0.762939 87.7498 0.766485 87.6395 0.777909C87.5564 0.786576 87.4757 0.799575 87.3914 0.822818C87.3287 0.840545 87.2633 0.864575 87.196 0.900817C87.0963 0.953998 86.9884 1.04382 86.9171 1.16594C86.845 1.28687 86.8182 1.42357 86.8194 1.53623C86.819 1.59887 86.8261 1.66584 86.8438 1.73438C86.8733 1.85453 86.9439 1.97862 87.0356 2.06529C87.1034 2.13108 87.1786 2.17756 87.2499 2.21026C87.3575 2.25871 87.4568 2.27998 87.5525 2.29377C87.649 2.30638 87.7428 2.31032 87.8405 2.31071C88.0394 2.31071 88.2671 2.31701 88.4672 2.33041C88.5673 2.3371 88.6602 2.34577 88.7374 2.35523C88.8139 2.36468 88.8761 2.3761 88.9021 2.38319L88.9124 2.38595L88.923 2.38832C89.1393 2.43401 89.2945 2.49153 89.4004 2.55101C89.4804 2.59553 89.534 2.64004 89.5781 2.68928C89.6435 2.76334 89.6955 2.85749 89.7396 3.01428C89.7833 3.16988 89.8125 3.38418 89.8267 3.65482V3.65876L89.8271 3.66191C89.859 4.13699 89.8751 4.57623 89.883 5.48307C89.8913 6.38833 89.8913 7.75332 89.8913 10.0606V14.49C89.8917 16.7327 90.1832 18.4546 90.691 19.8129C91.1972 21.1704 91.9263 22.1583 92.7583 22.9037C93.9437 23.976 95.3106 24.5322 96.574 24.819C97.8381 25.1062 99.0089 25.129 99.8275 25.1294C100.839 25.1294 101.928 25.042 103.052 24.7071C104.176 24.3727 105.331 23.7881 106.462 22.8178C107.146 22.2312 107.683 21.5485 108.098 20.8075C108.721 19.6951 109.073 18.4542 109.273 17.1766C109.473 15.8987 109.52 14.5818 109.52 13.3066V10.0606C109.52 7.75332 109.52 6.38833 109.528 5.48268C109.536 4.57623 109.552 4.1366 109.584 3.66151L109.584 3.65915V3.656C109.598 3.40585 109.622 3.19825 109.658 3.03595C109.684 2.91383 109.716 2.8181 109.751 2.74562C109.804 2.6361 109.854 2.57859 109.927 2.52541C110 2.4738 110.111 2.42456 110.29 2.39107C110.467 2.36074 110.592 2.34065 110.705 2.32883C110.819 2.31623 110.926 2.31071 111.08 2.31071C111.185 2.31032 111.284 2.30638 111.384 2.29338C111.459 2.28353 111.535 2.26856 111.616 2.24098C111.676 2.22011 111.739 2.19214 111.803 2.15077C111.897 2.0905 111.992 1.99359 112.049 1.87817C112.108 1.76314 112.129 1.64141 112.128 1.53623C112.128 1.46887 112.12 1.39521 112.097 1.31996C112.06 1.188 111.971 1.05918 111.869 0.978422Z" fill="white"/>
<path fill-rule="evenodd" clip-rule="evenodd" d="M179.064 19.6791C179.051 19.6204 179.032 19.5566 178.999 19.4877C178.952 19.3853 178.861 19.2675 178.735 19.1918C178.672 19.154 178.604 19.1268 178.538 19.1111C178.473 19.0945 178.409 19.0886 178.348 19.0886C178.25 19.0886 178.132 19.102 178.01 19.1572C177.919 19.1981 177.832 19.2635 177.77 19.3356C177.675 19.4451 177.63 19.5554 177.597 19.6535C177.565 19.7528 177.546 19.8473 177.527 19.9506L177.526 19.9549L177.526 19.9569C177.426 20.5497 177.292 20.9606 177.123 21.2379C177.039 21.3774 176.948 21.4869 176.839 21.5822C176.731 21.6772 176.603 21.7591 176.443 21.8336C176.294 21.9021 176.1 21.9612 175.884 22.0061C175.558 22.0739 175.18 22.1109 174.814 22.129C174.447 22.1471 174.091 22.1471 173.797 22.1471C173.035 22.1475 172.445 22.1184 172.008 22.0498C171.68 21.9986 171.441 21.9258 171.277 21.8418C171.152 21.7784 171.069 21.7122 171 21.6342C170.948 21.5755 170.904 21.5082 170.864 21.4227C170.804 21.2951 170.755 21.1237 170.721 20.9019C170.686 20.6801 170.667 20.4095 170.658 20.0912V20.0904C170.65 19.8083 170.647 19.3025 170.647 18.7231C170.647 17.5617 170.658 16.0951 170.658 15.4038V13.2028C171.112 13.2056 171.836 13.2131 172.547 13.2253C173.002 13.2328 173.453 13.2422 173.823 13.2537C174.008 13.2592 174.173 13.2651 174.308 13.2714C174.441 13.2777 174.546 13.2844 174.6 13.2899C174.851 13.3167 175.05 13.3608 175.206 13.4148C175.44 13.4971 175.572 13.5936 175.666 13.6976C175.757 13.8012 175.819 13.9249 175.864 14.0939C175.902 14.257 175.923 14.4268 175.937 14.597C175.951 14.7695 175.958 14.9417 175.975 15.1134H175.975C175.977 15.1721 175.983 15.2344 176.002 15.3057C176.02 15.3726 176.05 15.4467 176.098 15.5188C176.167 15.6279 176.283 15.7228 176.402 15.7729C176.522 15.8241 176.639 15.8391 176.748 15.8395C176.833 15.8395 176.924 15.8261 177.011 15.7938C177.087 15.7658 177.16 15.7236 177.219 15.6736C177.325 15.5854 177.389 15.4806 177.429 15.3888C177.488 15.2493 177.503 15.1308 177.513 15.0264C177.522 14.9228 177.521 14.8318 177.522 14.7616C177.521 14.7254 177.525 14.608 177.531 14.4587C177.539 14.233 177.554 13.9218 177.573 13.6133C177.591 13.3053 177.614 12.9976 177.636 12.7857L177.637 12.7746L177.638 12.7636C177.684 12.0021 177.744 11.5105 177.793 11.1863C177.817 11.0236 177.838 10.9034 177.855 10.8042C177.864 10.7541 177.871 10.7096 177.877 10.6643C177.882 10.6186 177.888 10.5725 177.888 10.5142C177.888 10.4244 177.876 10.3299 177.841 10.233C177.816 10.1609 177.777 10.0884 177.724 10.0246C177.646 9.92846 177.541 9.85873 177.442 9.82131C177.342 9.78349 177.249 9.77285 177.167 9.77246C177.041 9.77167 176.921 9.8087 176.831 9.85597C176.694 9.92806 176.61 10.0112 176.532 10.0908C176.457 10.1684 176.39 10.2483 176.315 10.3342C176.284 10.3685 176.25 10.3961 176.2 10.4244C176.124 10.4674 176.008 10.5095 175.838 10.5434C175.669 10.5777 175.451 10.6033 175.186 10.6241H175.183L175.182 10.6245C175.112 10.6308 174.985 10.6375 174.826 10.6431C174.266 10.6631 173.295 10.6738 172.396 10.6789C171.704 10.6824 171.054 10.6836 170.658 10.6836V3.37337C171.086 3.3781 171.821 3.3915 172.549 3.40962C173.015 3.42104 173.48 3.43443 173.858 3.44862C174.048 3.4561 174.215 3.46359 174.349 3.47068C174.482 3.47816 174.586 3.48604 174.629 3.49116C174.987 3.5341 175.265 3.58768 175.475 3.64637C175.633 3.69049 175.753 3.73737 175.842 3.78307C175.977 3.85279 176.044 3.91307 176.1 3.98161C176.155 4.04937 176.202 4.13643 176.254 4.26446C176.302 4.38697 176.343 4.57645 176.365 4.75175C176.389 4.92784 176.397 5.09605 176.397 5.17681C176.397 5.26466 176.401 5.35172 176.417 5.44429C176.429 5.51402 176.447 5.5869 176.48 5.6645C176.506 5.72241 176.54 5.78268 176.586 5.8402C176.655 5.92686 176.755 6.00289 176.86 6.04623C176.966 6.09074 177.072 6.10532 177.167 6.10532C177.291 6.1061 177.426 6.07695 177.541 6.01392C177.628 5.96704 177.701 5.90362 177.755 5.83902C177.837 5.74053 177.881 5.64284 177.91 5.56011C177.936 5.48053 177.95 5.41317 177.959 5.35723L177.96 5.35763C177.96 5.35566 177.96 5.35369 177.96 5.35172C177.96 5.35093 177.961 5.34975 177.961 5.34857H177.961C177.972 5.28632 177.981 5.22054 177.99 5.1449C178.022 4.87269 178.049 4.48151 178.072 4.1187C178.084 3.93788 178.094 3.76534 178.103 3.62195C178.111 3.47934 178.118 3.36392 178.123 3.3068V3.30247C178.17 2.61466 178.228 2.19078 178.273 1.91266C178.296 1.77321 178.316 1.67 178.332 1.57861C178.347 1.48721 178.362 1.40527 178.363 1.29537C178.363 1.24455 178.362 1.18743 178.353 1.11888C178.346 1.06767 178.334 1.00937 178.309 0.942007C178.29 0.891977 178.263 0.836827 178.223 0.78207C178.164 0.699343 178.071 0.621738 177.971 0.578011C177.87 0.533103 177.771 0.518921 177.684 0.518921C177.513 0.521285 177.393 0.560284 177.295 0.589041C177.198 0.619374 177.122 0.64498 177.093 0.650101L177.083 0.652465L177.072 0.655222C176.992 0.676495 176.82 0.707616 176.606 0.736373C176.395 0.765524 176.138 0.795069 175.859 0.824221C175.796 0.827372 175.643 0.830524 175.437 0.833281C173.888 0.853372 169.158 0.853372 168.315 0.853372C167.901 0.853372 167.209 0.830918 166.424 0.808069C165.638 0.785615 164.756 0.762767 163.943 0.762767C163.817 0.762767 163.702 0.766312 163.591 0.77813C163.508 0.787191 163.427 0.800191 163.343 0.823827C163.28 0.841948 163.215 0.865584 163.148 0.901826C163.049 0.955007 162.942 1.04364 162.871 1.16497C162.798 1.28552 162.771 1.42261 162.772 1.53606C162.772 1.5987 162.779 1.66567 162.796 1.73421C162.826 1.85436 162.896 1.97766 162.987 2.06433C163.055 2.13051 163.13 2.17699 163.201 2.20969C163.308 2.25814 163.407 2.27981 163.503 2.2932C163.598 2.3062 163.692 2.31014 163.789 2.31054C163.987 2.31054 164.215 2.31763 164.416 2.33142C164.516 2.33851 164.61 2.34717 164.687 2.35663C164.764 2.36608 164.828 2.37751 164.856 2.3846L164.864 2.38657L164.871 2.38814C165.085 2.43384 165.239 2.49096 165.344 2.55005C165.423 2.59457 165.476 2.63869 165.52 2.68832C165.585 2.76238 165.637 2.85693 165.682 3.01529C165.726 3.17207 165.756 3.38716 165.773 3.65858V3.66489L165.773 3.66528C165.809 4.13918 165.826 4.57882 165.836 5.48566C165.845 6.39131 165.845 7.75669 165.845 10.0604V15.4038C165.845 16.7987 165.845 18.0924 165.824 19.1914C165.804 20.2889 165.763 21.1966 165.685 21.7958C165.631 22.2232 165.56 22.5773 165.468 22.779C165.423 22.881 165.379 22.9409 165.342 22.9736C165.305 23.0059 165.278 23.0225 165.21 23.037L165.194 23.0398L165.178 23.0441C164.956 23.102 164.63 23.1517 164.209 23.1517C164.097 23.1517 163.993 23.1584 163.892 23.1765C163.816 23.1903 163.74 23.2104 163.663 23.2439C163.605 23.2691 163.546 23.3018 163.49 23.3455C163.407 23.4105 163.331 23.5042 163.286 23.6063C163.241 23.7079 163.225 23.8111 163.225 23.8982C163.224 24.0353 163.266 24.1952 163.355 24.3205C163.421 24.415 163.505 24.4863 163.589 24.536C163.714 24.6112 163.837 24.6459 163.959 24.6679C164.081 24.6896 164.204 24.6971 164.336 24.6975C164.954 24.6975 165.737 24.6754 166.454 24.6538C167.17 24.6317 167.825 24.6104 168.158 24.6104C169.913 24.6096 171.967 24.7889 176.56 24.7889C176.85 24.7885 177.091 24.7893 177.308 24.7755C177.472 24.7648 177.623 24.7467 177.776 24.705C177.89 24.6734 178.004 24.627 178.111 24.5588C178.273 24.4572 178.403 24.3079 178.491 24.1503C178.581 23.9919 178.64 23.8253 178.692 23.6382L178.696 23.6272L178.698 23.6145C178.739 23.4369 178.78 23.1895 178.824 22.8921C178.889 22.4485 178.957 21.9029 179.008 21.3983C179.034 21.1462 179.056 20.9043 179.072 20.6896C179.087 20.4745 179.097 20.2889 179.097 20.1377C179.097 20.0605 179.097 19.9797 179.092 19.8927C179.088 19.8269 179.081 19.7571 179.064 19.6791Z" fill="white"/>
<path fill-rule="evenodd" clip-rule="evenodd" d="M200.991 1.36189C200.986 1.28508 200.978 1.21023 200.959 1.12947C200.946 1.0692 200.926 1.00459 200.892 0.935262C200.867 0.883656 200.833 0.829293 200.788 0.777688C200.721 0.699689 200.625 0.633113 200.529 0.596871C200.432 0.559842 200.341 0.549205 200.262 0.549205C200.18 0.549993 200.12 0.559448 200.059 0.570084C199.954 0.588599 199.847 0.613811 199.707 0.642568C199.499 0.685901 199.223 0.737506 198.84 0.779657C198.458 0.821415 197.972 0.853323 197.353 0.853323H185.331C184.354 0.853717 183.214 0.795415 182.356 0.704022L182.35 0.703628L182.344 0.703234C182.025 0.675658 181.824 0.606326 181.648 0.535418C181.56 0.499176 181.478 0.460964 181.381 0.422752C181.332 0.403843 181.278 0.384934 181.216 0.369571C181.154 0.353813 181.082 0.341601 181 0.341601C180.875 0.340026 180.728 0.376662 180.611 0.451903C180.523 0.50666 180.454 0.576781 180.402 0.645719C180.324 0.7509 180.277 0.854505 180.238 0.960868C180.201 1.06447 180.172 1.1732 180.144 1.29217C180.143 1.29374 180.143 1.29611 180.142 1.29768C180.142 1.29847 180.142 1.29926 180.142 1.30044C180.131 1.34495 180.116 1.41035 180.095 1.50726C180.019 1.8618 179.872 2.57994 179.742 3.26815C179.677 3.61205 179.617 3.94768 179.572 4.22895C179.55 4.36959 179.531 4.49683 179.518 4.60674C179.505 4.71862 179.496 4.80764 179.495 4.90101C179.495 5.00107 179.499 5.09522 179.513 5.19213C179.524 5.265 179.54 5.34025 179.572 5.421C179.595 5.48127 179.628 5.5447 179.674 5.60576C179.743 5.69833 179.847 5.78106 179.956 5.82597C180.066 5.87245 180.172 5.88585 180.265 5.88585C180.365 5.88585 180.475 5.86812 180.579 5.8236C180.657 5.79091 180.73 5.74403 180.79 5.68967C180.882 5.60773 180.945 5.51358 180.99 5.42297C181.036 5.33118 181.065 5.24058 181.089 5.148L181.091 5.14328L181.092 5.13776C181.109 5.06055 181.15 4.93882 181.222 4.78677C181.293 4.63431 181.396 4.45035 181.536 4.23998L181.536 4.23959C181.618 4.11747 181.699 4.03514 181.804 3.96265C181.883 3.90868 181.977 3.86023 182.101 3.8165C182.285 3.75111 182.535 3.69793 182.861 3.66011C183.187 3.6219 183.588 3.59826 184.075 3.58132L188.081 3.47772V15.4041C188.081 16.7986 188.081 18.0927 188.061 19.1922C188.042 20.2905 188.001 21.1985 187.927 21.7989L187.926 21.8044L187.925 21.8107C187.885 22.231 187.817 22.5781 187.725 22.7758C187.681 22.8759 187.635 22.935 187.596 22.9692C187.557 23.0031 187.524 23.022 187.453 23.0366L187.437 23.0398L187.421 23.0437C187.191 23.1024 186.87 23.1516 186.457 23.1516C186.344 23.1516 186.24 23.1587 186.138 23.1764C186.062 23.1898 185.986 23.2099 185.909 23.2422C185.852 23.2667 185.793 23.2986 185.737 23.3411C185.652 23.4045 185.574 23.4967 185.527 23.5995C185.48 23.7024 185.463 23.8083 185.463 23.8985C185.461 24.036 185.504 24.1963 185.594 24.3212C185.659 24.4158 185.744 24.4867 185.827 24.5363C185.953 24.6112 186.075 24.6458 186.197 24.6683C186.319 24.6899 186.442 24.6974 186.573 24.6974C187.192 24.6974 187.978 24.6754 188.697 24.6537C189.415 24.632 190.071 24.6104 190.4 24.6104C190.809 24.6104 191.502 24.632 192.338 24.6537C193.175 24.6758 194.159 24.6974 195.169 24.6974C195.274 24.6974 195.377 24.6907 195.48 24.6738C195.557 24.6608 195.635 24.6419 195.714 24.6123C195.831 24.5674 195.958 24.4969 196.066 24.3705C196.119 24.3082 196.164 24.2318 196.194 24.1495C196.223 24.0671 196.237 23.9805 196.237 23.8985C196.238 23.7819 196.205 23.6452 196.133 23.531C196.079 23.4451 196.008 23.375 195.935 23.3242C195.823 23.2474 195.71 23.2087 195.599 23.1843C195.488 23.1607 195.375 23.152 195.254 23.1516C194.837 23.1524 194.177 23.0988 193.788 23.0346L193.78 23.0331L193.771 23.0319C193.601 23.0098 193.494 22.9673 193.418 22.92C193.361 22.8838 193.319 22.8436 193.278 22.7896C193.218 22.7092 193.163 22.5911 193.121 22.4292C193.078 22.2684 193.048 22.0675 193.026 21.841L193.025 21.8363L193.025 21.8323C192.953 21.2143 192.914 20.2984 192.896 19.1961C192.877 18.0927 192.877 16.7986 192.877 15.4041V3.47614L196.182 3.55178H196.183C196.833 3.56557 197.36 3.62741 197.779 3.7196C198.409 3.85708 198.787 4.06193 198.995 4.2522C199.1 4.34753 199.165 4.43892 199.209 4.52637C199.252 4.61422 199.274 4.69931 199.281 4.78755L199.281 4.79661L199.307 5.11964C199.317 5.24216 199.328 5.35127 199.347 5.45803C199.361 5.538 199.38 5.61758 199.413 5.70266C199.438 5.76609 199.471 5.83306 199.52 5.89884C199.592 5.99812 199.706 6.08833 199.824 6.13442C199.942 6.18208 200.051 6.19351 200.147 6.19351C200.211 6.19351 200.28 6.18524 200.349 6.16515C200.47 6.13087 200.584 6.05524 200.66 5.97015C200.777 5.84054 200.823 5.71054 200.855 5.59512C200.885 5.47852 200.898 5.36703 200.908 5.25082L200.909 5.23191V5.21222C200.909 4.83207 200.932 4.1088 200.954 3.40839C200.966 3.05739 200.977 2.71073 200.985 2.41055C200.994 2.10998 201 1.85825 201 1.68807C201 1.56989 200.998 1.46392 200.991 1.36189Z" fill="white"/>
<path fill-rule="evenodd" clip-rule="evenodd" d="M138.474 23.5688C138.433 23.4884 138.376 23.4163 138.311 23.3596C138.213 23.2737 138.103 23.2225 137.998 23.1926C137.892 23.1626 137.789 23.152 137.684 23.1516C137.485 23.152 137.228 23.1272 136.939 23.0705C136.818 23.0468 136.676 23.0208 136.491 22.968C136.216 22.8889 135.852 22.7518 135.4 22.4764C134.948 22.2014 134.41 21.7878 133.802 21.1544L133.802 21.1551C132.104 19.3789 130.105 16.8156 127.546 13.5955C128.906 12.4429 129.839 11.3576 130.442 10.2735C131.102 9.09167 131.356 7.91301 131.354 6.72372C131.354 5.60534 131.022 4.62484 130.576 3.84839C130.353 3.45918 130.103 3.1204 129.846 2.83598C129.59 2.55155 129.33 2.3215 129.079 2.14935L129.078 2.14856C128.189 1.54269 127.204 1.19681 126.205 1.0026C125.206 0.807998 124.19 0.763089 123.216 0.762695C122.73 0.762695 121.919 0.785544 121.096 0.808392C120.274 0.830846 119.441 0.853694 118.937 0.8533C118.634 0.853694 117.991 0.83124 117.234 0.808392C116.474 0.785544 115.592 0.762695 114.78 0.762695C114.655 0.762695 114.54 0.766635 114.429 0.778453C114.347 0.787119 114.266 0.800513 114.182 0.823755C114.119 0.841088 114.054 0.864725 113.988 0.900179C113.889 0.952178 113.781 1.03845 113.708 1.15978C113.633 1.27993 113.603 1.42017 113.605 1.53638C113.605 1.59981 113.612 1.66756 113.63 1.73729C113.66 1.85862 113.733 1.98232 113.825 2.0682C113.894 2.13359 113.969 2.17929 114.04 2.21119C114.147 2.25926 114.247 2.28013 114.343 2.29353C114.439 2.30653 114.533 2.31047 114.631 2.31047C114.829 2.31047 115.055 2.31756 115.253 2.33174C115.352 2.33844 115.445 2.3471 115.521 2.35695C115.598 2.36601 115.661 2.37744 115.69 2.38492L115.697 2.3865L115.705 2.38807C115.92 2.43416 116.075 2.49168 116.182 2.55116C116.263 2.59607 116.318 2.64098 116.363 2.69101C116.429 2.76586 116.482 2.85961 116.526 3.01561C116.57 3.17043 116.599 3.38355 116.612 3.653L116.613 3.65812C116.641 4.13439 116.656 4.57717 116.663 5.4848C116.671 6.39164 116.671 7.75662 116.671 10.0604V15.4041C116.671 16.7986 116.671 18.0927 116.652 19.1926C116.633 20.2889 116.596 21.1961 116.525 21.798C116.466 22.2243 116.396 22.5776 116.304 22.7797C116.259 22.8822 116.214 22.942 116.178 22.9747C116.141 23.007 116.115 23.0228 116.048 23.037L116.034 23.0397L116.019 23.0437C115.789 23.1024 115.462 23.152 115.051 23.1516C114.938 23.152 114.834 23.1587 114.733 23.1764C114.656 23.1902 114.581 23.2103 114.503 23.243C114.446 23.2678 114.386 23.3005 114.33 23.3442C114.246 23.4085 114.169 23.5018 114.124 23.6042C114.078 23.7067 114.062 23.8107 114.062 23.8985C114.06 24.0356 114.103 24.1959 114.193 24.3212C114.259 24.4157 114.343 24.487 114.426 24.5367C114.552 24.6115 114.675 24.6458 114.797 24.6683C114.919 24.6899 115.043 24.6974 115.175 24.6974C115.792 24.6974 116.574 24.6757 117.275 24.6537C117.626 24.643 117.956 24.632 118.234 24.6237C118.51 24.6159 118.737 24.6103 118.869 24.6107C118.971 24.6103 119.199 24.6159 119.499 24.6241C120.406 24.6482 122.001 24.6974 123.33 24.6974C123.447 24.6974 123.558 24.6915 123.667 24.675C123.749 24.6627 123.83 24.6446 123.912 24.6151C123.974 24.5926 124.037 24.5639 124.1 24.5241C124.193 24.4646 124.287 24.3756 124.351 24.2605C124.415 24.1467 124.444 24.0147 124.443 23.8985C124.444 23.7953 124.422 23.6807 124.369 23.5739C124.33 23.4939 124.273 23.4211 124.209 23.3631C124.112 23.2761 124.002 23.2237 123.896 23.193C123.791 23.1626 123.687 23.152 123.583 23.1516C123.423 23.152 123.17 23.1394 122.909 23.1177C122.648 23.0965 122.374 23.0661 122.163 23.0338L122.157 23.033L122.15 23.0322C121.979 23.0098 121.873 22.9672 121.798 22.9204C121.742 22.8841 121.7 22.8443 121.66 22.79C121.6 22.7092 121.545 22.5887 121.503 22.422C121.46 22.2562 121.43 22.0482 121.408 21.813L121.407 21.8067L121.406 21.8C121.333 21.1993 121.293 20.2908 121.274 19.1878C121.255 18.0836 121.255 16.7805 121.255 15.3678V15.2099L123.633 15.2623H123.638C123.721 15.2619 123.761 15.2705 123.77 15.2745L123.777 15.2772L123.796 15.2973L123.801 15.3028L123.806 15.3088C123.842 15.3493 123.903 15.425 123.977 15.5231C124.24 15.8681 124.678 16.4886 125.179 17.2004C125.681 17.9131 126.249 18.7206 126.786 19.4569L126.785 19.4553C127.635 20.6296 128.355 21.5826 129.042 22.344C129.727 23.1035 130.382 23.6767 131.104 24.064C131.534 24.2995 131.987 24.4666 132.534 24.5635C133.083 24.6616 133.725 24.6974 134.589 24.6974H137.474C137.579 24.6974 137.68 24.6935 137.783 24.6805C137.86 24.6702 137.939 24.6549 138.022 24.6269C138.084 24.6056 138.15 24.5765 138.215 24.5343C138.313 24.4725 138.409 24.3736 138.469 24.2546C138.53 24.1364 138.552 24.0096 138.551 23.8985C138.552 23.7933 138.528 23.6759 138.474 23.5688ZM125.19 12.3879C125.068 12.4765 124.964 12.5419 124.864 12.5919C124.713 12.6672 124.564 12.7164 124.327 12.753C124.092 12.7889 123.773 12.8062 123.33 12.8062C122.971 12.8062 122.574 12.7846 122.195 12.7385C121.85 12.6967 121.523 12.6325 121.258 12.5525C121.256 12.5277 121.255 12.4978 121.255 12.4584V3.26827C121.359 3.24818 121.51 3.22927 121.694 3.21745C121.946 3.20051 122.263 3.19342 122.633 3.19342C123.025 3.19303 123.487 3.26197 123.95 3.42585C124.646 3.67284 125.341 4.12547 125.871 4.87986C126.4 5.63503 126.775 6.70654 126.776 8.23973C126.776 9.42705 126.566 10.3252 126.266 10.9945C125.965 11.663 125.573 12.1062 125.19 12.3879Z" fill="white"/>
<path fill-rule="evenodd" clip-rule="evenodd" d="M162.434 23.6436C162.412 23.577 162.377 23.5124 162.335 23.4573C162.261 23.3592 162.169 23.295 162.088 23.2548C161.963 23.1949 161.858 23.1772 161.762 23.1646C161.666 23.1535 161.577 23.1516 161.49 23.1516C161.304 23.1516 161.077 23.1449 160.791 23.107C160.505 23.0692 160.16 22.9999 159.746 22.8707L159.743 22.8695C159.579 22.8191 159.468 22.7537 159.365 22.658C159.289 22.5855 159.216 22.4917 159.144 22.3629C159.038 22.1703 158.938 21.8985 158.85 21.5408C158.762 21.1835 158.684 20.7419 158.606 20.2136V20.2132L155.852 1.46346C155.798 1.10774 155.726 0.821742 155.58 0.569623C155.506 0.444746 155.408 0.325384 155.272 0.234779C155.137 0.143386 154.964 0.0925679 154.805 0.0945376C154.664 0.0933558 154.513 0.129204 154.387 0.195779C154.292 0.245415 154.21 0.308838 154.141 0.377383C154.037 0.480988 153.958 0.594835 153.886 0.716955C153.817 0.83553 153.755 0.964346 153.692 1.10616H153.692L145.888 17.4903L138.054 1.31771L138.053 1.31574C137.848 0.902893 137.697 0.638562 137.51 0.43017C137.415 0.327353 137.303 0.23596 137.172 0.175688C137.04 0.114234 136.899 0.0933558 136.787 0.0945376C136.633 0.0929619 136.472 0.142598 136.347 0.224142C136.252 0.284808 136.176 0.36005 136.113 0.440019C136.018 0.560563 135.953 0.692531 135.9 0.834348C135.847 0.976952 135.808 1.13059 135.779 1.29959L135.778 1.30549L133.182 18.3913C133.753 19.0641 134.29 19.6711 134.795 20.199C135.218 20.6402 135.634 20.9885 136.031 21.2429C136.034 21.2166 136.037 21.1917 136.04 21.1646L137.419 10.5902C137.822 11.4497 138.26 12.3798 138.659 13.2264C138.969 13.8858 139.256 14.4937 139.482 14.9758C139.707 15.4572 139.874 15.8173 139.939 15.965C139.991 16.0859 140.068 16.2514 140.17 16.4629C140.53 17.2106 141.188 18.5059 141.836 19.7716C142.485 21.0365 143.123 22.2684 143.439 22.8786L143.442 22.8825C143.684 23.3383 143.883 23.722 144.075 24.0218C144.173 24.1719 144.267 24.3026 144.388 24.4204C144.45 24.4791 144.52 24.5359 144.611 24.5839C144.701 24.6312 144.817 24.669 144.946 24.669C145.022 24.669 145.111 24.6584 145.199 24.6296C145.276 24.6048 145.35 24.5666 145.413 24.5221C145.525 24.4433 145.607 24.3511 145.683 24.2499C145.796 24.097 145.899 23.915 146.031 23.6649C146.162 23.4155 146.317 23.0988 146.516 22.6887L146.518 22.6867L152.506 10.21L154.133 22.1195L154.132 22.1175C154.169 22.3696 154.184 22.5721 154.184 22.7222C154.185 22.8199 154.177 22.8924 154.169 22.9408C154.079 22.9849 153.988 23.0381 153.894 23.1216C153.829 23.1811 153.763 23.2599 153.716 23.3588C153.667 23.4569 153.642 23.5723 153.643 23.6786C153.643 23.7417 153.651 23.8146 153.674 23.8914C153.694 23.9579 153.727 24.0261 153.77 24.0856C153.845 24.1908 153.941 24.2621 154.03 24.3101C154.166 24.3814 154.295 24.4149 154.444 24.4456C154.594 24.4748 154.765 24.4965 154.975 24.5169L154.981 24.5177H154.986C155.304 24.5418 155.795 24.5642 156.373 24.5851C157.24 24.6166 158.297 24.645 159.21 24.6651C160.123 24.6852 160.888 24.6974 161.182 24.6974C161.305 24.6974 161.426 24.6911 161.547 24.6757C161.727 24.6509 161.902 24.6142 162.086 24.5091C162.176 24.4555 162.271 24.3799 162.348 24.2668C162.425 24.1557 162.471 24.006 162.47 23.8666C162.47 23.7964 162.459 23.7196 162.434 23.6436Z" fill="white"/>
<path fill-rule="evenodd" clip-rule="evenodd" d="M80.8848 1.82825C78.8615 0.635023 76.3387 0 73.4335 0C71.0974 0 69.1041 0.431359 67.4334 1.17156C64.9257 2.28128 63.1565 4.08511 62.0279 6.106C60.8981 8.12846 60.3974 10.3656 60.397 12.3932C60.397 13.7897 60.6251 15.2571 61.1096 16.6784C61.8356 18.8092 63.1435 20.8423 65.1289 22.3416C67.1136 23.8417 69.7707 24.7935 73.1321 24.7919C77.0994 24.7943 80.3829 23.3674 82.6551 21.0235C84.9293 18.6808 86.1883 15.4363 86.1875 11.8448C86.1875 10.0528 85.8838 8.4113 85.2992 6.9565C84.4231 4.77449 82.908 3.01991 80.8848 1.82825ZM76.5172 21.9004C75.7191 22.1875 74.9572 22.2636 74.4053 22.2636C73.0194 22.2632 71.7884 21.9673 70.7114 21.4351C69.0978 20.6362 67.8222 19.2988 66.9414 17.5761C66.0614 15.8542 65.5831 13.749 65.5835 11.4524C65.5835 9.608 65.827 8.12562 66.2323 6.94539C66.5368 6.05943 66.932 5.34326 67.3873 4.76299C68.0704 3.89319 68.8906 3.32395 69.7781 2.9631C70.6649 2.60344 71.6214 2.4569 72.5506 2.4569C73.7242 2.45729 74.8268 2.70508 75.8262 3.17465C77.3244 3.87979 78.5948 5.08563 79.5001 6.73858C80.4041 8.39114 80.9387 10.4924 80.9387 12.9691C80.9387 15.1156 80.6377 16.7642 80.1694 18.0256C79.8176 18.9718 79.3728 19.7014 78.8843 20.2691C78.1512 21.1192 77.3161 21.6124 76.5172 21.9004Z" fill="white"/>
<path fill-rule="evenodd" clip-rule="evenodd" d="M31.2075 10.9287C30.6233 10.2126 29.7822 9.6914 28.6685 9.50113C29.1822 9.17731 29.6278 8.77826 29.9532 8.29608C30.3105 7.76702 30.5224 7.1387 30.522 6.41464C30.522 6.35674 30.5208 6.29843 30.5181 6.23934C30.4806 5.42665 30.1332 4.69157 29.6026 4.04276C28.806 3.06935 27.597 2.28029 26.3601 1.6756C25.1227 1.07091 23.8566 0.65216 22.9423 0.428799C21.9579 0.188498 20.8312 0.0667725 19.6399 0.0667725C17.3571 0.0667725 14.8359 0.513495 12.6279 1.43845C11.2755 2.00493 10.0409 2.75302 9.05215 3.6894C7.2625 3.77331 5.47009 4.32403 3.95738 5.26396C2.19728 6.35792 0.948899 7.87181 0.34736 9.64215C-0.317602 11.6004 -0.0189995 13.6729 1.16714 15.3286C2.31034 16.924 4.1319 17.9152 5.92076 17.9152C5.93927 17.9152 5.95779 17.9152 5.9763 17.9148L5.97866 17.9231L6.15003 17.9136C6.15003 17.9136 6.19415 17.9101 6.26978 17.9018C6.59635 17.8782 6.92056 17.8214 7.23335 17.7324C8.08622 17.5311 8.71612 17.2526 9.18057 16.9394C9.06042 18.4659 8.98675 18.9516 8.32849 22.718C17.6301 20.9646 20.6208 22.6763 25.5498 25.4208C22.8166 20.007 14.8879 19.7029 10.1083 20.165C10.5294 17.966 10.1879 17.1183 9.76674 16.4407C10.143 16.0306 10.3175 15.6008 10.388 15.2258L10.3943 15.1927L10.7004 14.7101L10.4687 14.7992L10.4813 14.7314L10.2765 14.8728L10.117 14.9343C9.13684 15.3105 8.15437 15.5094 7.27629 15.5094C6.05233 15.5094 5.06316 15.1316 4.41592 14.4178C3.69739 13.6248 3.40863 12.4533 3.55793 10.9351C3.94911 6.95512 7.90225 5.53696 11.4709 5.53656C12.6732 5.53656 13.87 5.69532 14.9328 5.9955L15.8263 6.24801L15.1243 5.64017C14.1536 4.79912 12.988 4.22003 11.6888 3.91867C11.8979 3.85761 12.1087 3.8001 12.3214 3.74613C14.0788 3.30019 15.944 3.0922 17.6321 3.09259C18.2289 3.09259 18.8036 3.11859 19.3433 3.16862C20.7772 3.30216 22.4589 3.83673 23.7727 4.60648C24.4298 4.99057 24.9947 5.43375 25.3914 5.91001C25.7889 6.38667 26.0166 6.89249 26.0166 7.40933C26.0162 7.8663 25.8401 8.3402 25.4229 8.82789C25.0061 9.3144 24.3467 9.81076 23.391 10.2965L23.1172 10.4355L23.4198 10.4903C23.7834 10.5561 24.182 10.5892 24.5992 10.5892C25.0207 10.5892 25.4619 10.5545 25.9047 10.4852C26.91 10.7192 27.6995 11.2352 28.2801 11.8974C29.0794 12.8102 29.4793 14.003 29.4789 15.1056C29.4793 15.9447 29.2472 16.729 28.7946 17.2979C28.3412 17.8667 27.6715 18.2276 26.7599 18.2288C26.1367 18.2288 25.3985 18.0546 24.5488 17.654C24.6185 16.7952 24.8127 16.2189 24.9805 15.5449C22.4814 13.1647 15.7632 13.6891 11.8424 14.9717C17.8389 14.5419 20.3861 15.2616 23.894 16.2741C23.3284 18.7633 23.9208 18.7688 24.6012 19.6871C24.5271 18.995 24.5098 18.4375 24.5295 17.9648C25.8673 19.2514 27.1093 19.7903 28.1986 19.7903C28.8249 19.7907 29.3973 19.6119 29.8988 19.303C30.6516 18.8394 31.2469 18.0862 31.6554 17.2002C32.0631 16.3138 32.2849 15.2932 32.2853 14.287C32.2849 13.0536 31.9516 11.8395 31.2075 10.9287Z" fill="white"/>
<path fill-rule="evenodd" clip-rule="evenodd" d="M113.549 27.4999H118.543V28.8586H115.128V31.3187H118.004V32.6774H115.128V36.1897H113.549V27.4999Z" fill="white"/>
<path fill-rule="evenodd" clip-rule="evenodd" d="M123.915 27.353C126.473 27.353 128.407 29.2991 128.407 31.7836C128.407 34.3418 126.473 36.3367 123.915 36.3367C121.357 36.3367 119.423 34.3418 119.423 31.7836C119.423 29.2991 121.357 27.353 123.915 27.353ZM123.915 34.8926C125.506 34.8926 126.779 33.5709 126.779 31.7837C126.779 30.0704 125.506 28.7972 123.915 28.7972C122.324 28.7972 121.051 30.0704 121.051 31.7837C121.051 33.5709 122.324 34.8926 123.915 34.8926Z" fill="white"/>
<path fill-rule="evenodd" clip-rule="evenodd" d="M133.9 27.353C136.458 27.353 138.392 29.2991 138.392 31.7836C138.392 34.3418 136.458 36.3367 133.9 36.3367C131.342 36.3367 129.408 34.3418 129.408 31.7836C129.408 29.2991 131.342 27.353 133.9 27.353ZM133.9 34.8926C135.491 34.8926 136.764 33.5709 136.764 31.7837C136.764 30.0704 135.491 28.7972 133.9 28.7972C132.309 28.7972 131.036 30.0704 131.036 31.7837C131.036 33.5709 132.309 34.8926 133.9 34.8926Z" fill="white"/>
<path fill-rule="evenodd" clip-rule="evenodd" d="M139.994 27.4999H142.956C145.636 27.4999 147.386 29.091 147.386 31.8328C147.386 34.5742 145.636 36.1897 142.956 36.1897H139.994V27.4999ZM142.87 34.8314C144.632 34.8314 145.758 33.791 145.758 31.8327C145.758 29.8989 144.608 28.8585 142.87 28.8585H141.572V34.8314H142.87Z" fill="white"/>
<path fill-rule="evenodd" clip-rule="evenodd" d="M152.207 33.9622C152.207 33.9622 153.15 34.8801 154.374 34.8801C155.035 34.8801 155.635 34.5374 155.635 33.8275C155.635 32.273 151.534 32.5425 151.534 29.8744C151.534 28.4298 152.783 27.3528 154.447 27.3528C156.161 27.3528 157.042 28.2833 157.042 28.2833L156.356 29.5683C156.356 29.5683 155.524 28.8096 154.435 28.8096C153.7 28.8096 153.125 29.2378 153.125 29.8499C153.125 31.3918 157.214 31.0124 157.214 33.7909C157.214 35.174 156.161 36.3365 154.349 36.3365C152.415 36.3365 151.351 35.1495 151.351 35.1495L152.207 33.9622Z" fill="white"/>
<path fill-rule="evenodd" clip-rule="evenodd" d="M160.591 28.8586H157.739V27.4999H165.021V28.8586H162.17V36.1901H160.591V28.8586Z" fill="white"/>
<path fill-rule="evenodd" clip-rule="evenodd" d="M169.989 27.353C172.547 27.353 174.481 29.2991 174.481 31.7836C174.481 34.3418 172.547 36.3367 169.989 36.3367C167.431 36.3367 165.497 34.3418 165.497 31.7836C165.497 29.2991 167.431 27.353 169.989 27.353ZM169.989 34.8926C171.58 34.8926 172.853 33.5709 172.853 31.7837C172.853 30.0704 171.58 28.7972 169.989 28.7972C168.398 28.7972 167.125 30.0704 167.125 31.7837C167.125 33.5709 168.398 34.8926 169.989 34.8926Z" fill="white"/>
<path fill-rule="evenodd" clip-rule="evenodd" d="M176.083 27.4999H178.886C179.828 27.4999 180.257 27.5731 180.636 27.7445C181.505 28.1365 182.056 28.9685 182.056 30.1192C182.056 31.1595 181.505 32.1263 180.587 32.4934V32.5178C180.587 32.5178 180.71 32.6403 180.881 32.9464L182.668 36.1897H180.906L179.18 32.9464H177.662V36.1897H176.083V27.4999ZM179.082 31.5755C179.926 31.5755 180.453 31.0736 180.453 30.2046C180.453 29.3726 180.098 28.8585 178.862 28.8585H177.663V31.5755H179.082Z" fill="white"/>
<path fill-rule="evenodd" clip-rule="evenodd" d="M184.135 27.4999H189.337V28.8586H185.714V31.1351H188.639V32.4934H185.714V34.8314H189.532V36.1897H184.135V27.4999Z" fill="white"/>
<path fill-rule="evenodd" clip-rule="evenodd" d="M191.368 33.9625C191.368 33.9625 192.31 34.8803 193.534 34.8803C194.195 34.8803 194.795 34.5376 194.795 33.8277C194.795 32.2733 190.694 32.5427 190.694 29.8746C190.694 28.43 191.943 27.353 193.607 27.353C195.321 27.353 196.202 28.2835 196.202 28.2835L195.516 29.5685C195.516 29.5685 194.684 28.8098 193.595 28.8098C192.861 28.8098 192.285 29.238 192.285 29.8502C192.285 31.392 196.374 31.0127 196.374 33.7911C196.374 35.1742 195.321 36.3367 193.509 36.3367C191.576 36.3367 190.511 35.1498 190.511 35.1498L191.368 33.9625Z" fill="white"/>
</svg>
